<svg width="155" height="91" viewBox="0 0 155 91" fill="none" xmlns="http://www.w3.org/2000/svg">
<path d="M141.034 0.253176C140.715 0.158853 140.383 0.117955 140.052 0.132092C139.521 0.1476 138.996 0.240273 138.492 0.407283C138.048 0.513639 137.63 0.71091 137.264 0.987019L125.123 14.3833L112.653 0H90.3857L108.63 20.4302H125.022L141.193 0.98335C141.283 0.905151 141.343 0.797377 141.363 0.678805C141.362 0.580821 141.33 0.485758 141.27 0.408665C141.211 0.331572 141.127 0.276855 141.034 0.253176Z" fill="white"/>
<path d="M128.831 81.2218C128.831 81.2878 128.831 81.3539 128.831 81.4199C128.831 81.3392 128.831 81.2585 128.812 81.1777L128.831 81.2218Z" fill="white"/>
<path d="M154.543 88.1309C154.424 88.8872 154.039 89.574 153.46 90.0646C152.882 90.5434 152.158 90.8029 151.413 90.7984H2.97092C2.43312 90.7976 1.90561 90.6486 1.44447 90.3674C0.98334 90.0863 0.605825 89.6834 0.352071 89.2016C0.098316 88.7198 -0.0221917 88.1772 0.0033615 87.6314C0.0289147 87.0855 0.199573 86.557 0.497191 86.1018L55.2586 2.63083C55.3266 2.52764 55.3657 2.40764 55.3718 2.28363C55.378 2.15962 55.3509 2.03625 55.2934 1.92666C55.236 1.81707 55.1503 1.72538 55.0456 1.66135C54.9409 1.59732 54.8211 1.56336 54.6989 1.56309H42.6372C37.5381 1.56309 33.3682 2.16361 30.1277 3.36467C25.3632 5.00848 21.2705 8.58108 17.8494 14.0825C14.2976 19.8942 11.3874 26.0861 9.17148 32.546L9.02342 32.9129C9.02342 32.9312 9.02342 32.9606 9.00536 32.9789L8.76702 33.9439C8.738 34.0627 8.67811 34.1713 8.59361 34.2584C8.50912 34.3456 8.40312 34.408 8.28672 34.4393C7.88506 34.539 7.47225 34.5846 7.05888 34.575C6.52559 34.5712 5.99903 34.4537 5.51326 34.2301C5.3929 34.1771 5.29047 34.0894 5.21859 33.9779C5.14671 33.8664 5.10854 33.736 5.10879 33.6027V0.686144C5.10879 0.504167 5.17994 0.329644 5.30659 0.200967C5.43323 0.0722899 5.605 0 5.7841 0L88.6413 0C88.7632 5.09453e-05 88.8829 0.0336473 88.9875 0.097223C89.0922 0.160799 89.178 0.251981 89.2357 0.361092C89.2935 0.470202 89.3211 0.593169 89.3156 0.716939C89.3102 0.84071 89.2718 0.960665 89.2046 1.06407L32.6051 87.8411C32.5372 87.9455 32.4987 88.0668 32.4938 88.1919C32.4889 88.317 32.5178 88.441 32.5773 88.5506C32.6368 88.6602 32.7247 88.7512 32.8314 88.8136C32.9382 88.8761 33.0597 88.9078 33.1829 88.9051H47.1946C48.083 88.9051 48.9605 88.8819 49.8273 88.8354H64.3843L81.6968 62.1272L99.0093 88.8354H117.542C117.542 88.8354 126.639 89.4262 128.499 83.493C128.722 82.9595 128.836 82.385 128.831 81.8052C128.831 81.6841 128.831 81.5594 128.831 81.4383C128.831 81.3722 128.831 81.3062 128.831 81.2401L128.81 81.1961C128.595 79.0753 127.312 76.5374 124.96 73.5825C122.372 70.3389 116.921 65.3243 108.608 58.5387C100.295 51.7531 94.9538 46.8498 92.5848 43.8288C90.2158 40.8078 89.0325 38.1574 89.0349 35.8776C89.0349 32.1252 91.8156 29.0871 97.377 26.7633C102.938 24.4394 109.407 23.2763 116.784 23.2738C123.248 23.2625 129.666 24.3795 135.758 26.5761C135.875 26.6125 136.001 26.6125 136.119 26.5761C137.768 26.1505 140.183 25.3567 143.363 24.1948C145.234 23.5711 146.5 23.2592 147.162 23.2592C147.551 23.2545 147.939 23.2964 148.318 23.3839C148.65 23.5454 148.816 23.7288 148.816 23.9343V49.7472C148.816 50.0334 148.592 50.2573 148.155 50.4187C147.677 50.589 147.174 50.6722 146.667 50.6645C146.154 50.6966 145.641 50.5916 145.179 50.36C144.851 50.1582 144.573 49.5454 144.356 48.5254C142.912 40.9986 139.828 34.8967 135.104 30.2197C131.7 26.9516 127.245 25.3176 121.739 25.3176C118.655 25.3176 116.067 25.7457 113.974 26.6018C111.882 27.458 110.833 28.626 110.825 30.1059C110.825 33.8167 117.377 40.5241 130.482 50.2279C139.289 56.6711 144.002 63.338 146.87 67.4292C153.345 76.6463 155.11 84.4287 154.543 88.1309Z" fill="white"/>
<path d="M128.831 81.2218C128.831 81.2878 128.831 81.3539 128.831 81.4199C128.831 81.3392 128.831 81.2585 128.812 81.1777L128.831 81.2218Z" fill="white"/>
</svg>
