<svg width="196" height="147" viewBox="0 0 196 147" fill="none" xmlns="http://www.w3.org/2000/svg">
<rect x="3" y="3" width="190.007" height="140.012" rx="7" fill="#212121"/>
<rect x="3" y="3" width="190.007" height="140.012" rx="7" stroke="white" stroke-width="6"/>
<path d="M161.074 20.2532C160.756 20.1589 160.424 20.118 160.092 20.1321C159.562 20.1476 159.037 20.2403 158.532 20.4073C158.088 20.5136 157.67 20.7109 157.304 20.987L145.163 34.3833L132.693 20H110.426L128.67 40.4302H145.062L161.233 20.9833C161.323 20.9052 161.383 20.7974 161.403 20.6788C161.403 20.5808 161.37 20.4858 161.311 20.4087C161.251 20.3316 161.168 20.2769 161.074 20.2532Z" fill="white"/>
<path d="M148.872 101.222C148.872 101.288 148.872 101.354 148.872 101.42C148.872 101.339 148.872 101.258 148.854 101.178L148.872 101.222Z" fill="white"/>
<path d="M23.5427 123.923L29.0643 116.713V115.422H20V117.366H25.5939L20.0325 124.532V125.857H29.1185V123.923H23.5427Z" fill="white"/>
<path d="M39.4142 117.704C38.9954 116.941 38.3683 116.318 37.6086 115.91C36.7912 115.48 35.8816 115.263 34.9615 115.278C34.0323 115.262 33.1137 115.481 32.2891 115.917C31.5232 116.323 30.8944 116.953 30.4835 117.726C30.0524 118.559 29.8362 119.489 29.8551 120.43V121.021C29.8585 121.937 30.0909 122.837 30.5305 123.637C30.9513 124.387 31.5789 124.995 32.3361 125.387C33.1565 125.806 34.065 126.017 34.9832 126C35.9062 126.016 36.8186 125.798 37.6374 125.365C38.4034 124.959 39.0322 124.329 39.4431 123.556C39.8766 122.725 40.0941 121.796 40.0751 120.856V120.375C40.0857 119.442 39.858 118.521 39.4142 117.704ZM37.2077 120.903C37.2483 121.721 37.0403 122.532 36.6118 123.226C36.4264 123.49 36.1789 123.702 35.8919 123.844C35.6048 123.986 35.2875 124.052 34.9687 124.037C34.6407 124.056 34.3132 123.991 34.0169 123.846C33.7207 123.702 33.4654 123.483 33.275 123.211C32.8548 122.503 32.657 121.681 32.7081 120.856V120.089C32.7875 118.195 33.5326 117.249 34.9434 117.249C35.265 117.233 35.5855 117.298 35.8761 117.439C36.1667 117.58 36.4183 117.792 36.6082 118.056C36.9946 118.595 37.1896 119.381 37.1896 120.419L37.2077 120.903Z" fill="white"/>
<path d="M47.1207 112.622L45.9434 113.565L44.7625 112.607H42.4405V112.67L45.0695 114.714H46.8065L49.4211 112.684V112.607L47.1207 112.622ZM48.4605 120.382C47.8217 120.074 47.1554 119.828 46.4707 119.649C45.879 119.505 45.3101 119.278 44.7806 118.974C44.6453 118.903 44.53 118.799 44.4459 118.67C44.3617 118.542 44.3116 118.394 44.3003 118.24C44.3018 118.086 44.343 117.935 44.4196 117.803C44.4963 117.67 44.6058 117.56 44.7373 117.484C45.0955 117.267 45.5091 117.164 45.9254 117.187C46.3476 117.164 46.7649 117.287 47.1099 117.535C47.2542 117.654 47.369 117.805 47.4449 117.977C47.5209 118.15 47.5558 118.337 47.5468 118.526H50.3347C50.3423 117.914 50.1477 117.317 49.7822 116.831C49.3802 116.311 48.8437 115.916 48.233 115.69C47.5125 115.411 46.7466 115.274 45.9759 115.286C45.1859 115.274 44.3995 115.398 43.6503 115.653C43.0389 115.849 42.4886 116.205 42.0541 116.684C41.6835 117.104 41.4812 117.65 41.4871 118.214C41.4871 119.373 42.2431 120.286 43.755 120.951C44.344 121.2 44.9469 121.413 45.5606 121.59C46.096 121.726 46.6093 121.939 47.0846 122.224C47.224 122.317 47.3375 122.445 47.4141 122.595C47.4906 122.746 47.5277 122.914 47.5216 123.083C47.5278 123.233 47.495 123.381 47.4265 123.514C47.358 123.647 47.2563 123.759 47.1315 123.839C46.8031 124.032 46.4271 124.125 46.0482 124.107C45.4947 124.154 44.9414 124.015 44.4736 123.71C44.3048 123.556 44.1733 123.364 44.0894 123.15C44.0055 122.935 43.9714 122.704 43.9897 122.474H41.1513C41.1378 123.134 41.3411 123.779 41.7291 124.309C42.1796 124.882 42.7805 125.315 43.4625 125.556C44.2827 125.87 45.1537 126.024 46.0301 126.011C47.3699 126.011 48.428 125.751 49.1972 125.23C49.557 125.003 49.8517 124.683 50.0514 124.304C50.2511 123.925 50.3489 123.498 50.3347 123.068C50.3347 121.928 49.71 121.033 48.4605 120.382Z" fill="white"/>
<path d="M57.81 115.422H55.1666L50.8872 125.857H53.8918L54.5671 123.909H58.4203L59.1029 125.857H62.1219L57.81 115.422ZM55.2388 121.964L56.4739 118.335L57.7342 121.953L55.2388 121.964Z" fill="white"/>
<path d="M72.7571 115.422H69.2794L66.7515 118.698L65.7765 120.023V115.422H62.9741V125.857H65.7873V123.105L66.9393 121.971L69.4239 125.857H72.7571L68.8136 120.038L72.7571 115.422Z" fill="white"/>
<path d="M83.6595 123.622C83.223 123.922 82.7008 124.065 82.1753 124.03C81.4097 124.03 80.8716 123.791 80.561 123.314C80.2469 122.833 80.0916 122.041 80.0916 120.925V120.192C80.0916 119.164 80.2794 118.416 80.6044 117.95C80.7817 117.71 81.0156 117.52 81.2846 117.397C81.5535 117.274 81.8487 117.222 82.1428 117.245C82.6875 117.203 83.2301 117.35 83.6812 117.664C83.8636 117.838 84.0063 118.051 84.0993 118.287C84.1922 118.524 84.2332 118.778 84.2193 119.032H87.0252C86.9882 118.493 86.8383 117.969 86.5854 117.493C86.3325 117.018 85.9826 116.603 85.559 116.277C84.6971 115.609 83.5584 115.275 82.1428 115.275C81.2388 115.255 80.3449 115.471 79.5463 115.902C78.8111 116.308 78.2124 116.928 77.8273 117.682C77.4152 118.513 77.2106 119.434 77.2314 120.364V120.881C77.2314 122.511 77.672 123.772 78.5532 124.664C79.4343 125.557 80.6381 126.004 82.1644 126.004C83.0131 126.018 83.8561 125.862 84.6454 125.545C85.3142 125.281 85.898 124.834 86.3319 124.253C86.7346 123.692 86.9634 123.021 86.9891 122.327H84.194C84.2046 122.57 84.1622 122.812 84.0697 123.036C83.9773 123.26 83.8372 123.46 83.6595 123.622Z" fill="white"/>
<path d="M97.5595 117.704C97.1414 116.941 96.5141 116.318 95.7539 115.91C94.9281 115.492 94.0183 115.275 93.096 115.275C92.1736 115.275 91.2638 115.492 90.4381 115.91C89.6721 116.316 89.0433 116.946 88.6324 117.719C88.1986 118.551 87.9811 119.481 88.0005 120.423V121.014C88.005 121.93 88.2386 122.83 88.6794 123.63C89.1002 124.38 89.7279 124.988 90.485 125.38C91.304 125.8 92.2114 126.01 93.1285 125.993C94.0527 126.01 94.9664 125.791 95.7864 125.358C96.5523 124.951 97.1811 124.321 97.592 123.549C98.0266 122.718 98.2454 121.789 98.2276 120.848V120.368C98.2331 119.436 98.0031 118.519 97.5595 117.704ZM95.3494 120.896C95.3981 121.716 95.1935 122.53 94.7644 123.226C94.5792 123.49 94.3317 123.703 94.0446 123.845C93.7575 123.986 93.44 124.052 93.1212 124.037C92.7937 124.057 92.4665 123.992 92.1708 123.847C91.875 123.703 91.6205 123.484 91.4312 123.211C91.0109 122.503 90.8132 121.681 90.8642 120.856V120.089C90.9436 118.196 91.6888 117.249 93.0996 117.249C93.4207 117.233 93.7407 117.298 94.0307 117.439C94.3207 117.58 94.5716 117.792 94.7608 118.056C95.1508 118.596 95.3422 119.381 95.3422 120.419L95.3494 120.896Z" fill="white"/>
<path d="M106.602 115.422V121.916L102.474 115.422H99.6611V125.857H102.474V119.362L106.613 125.857H109.408V115.422H106.602Z" fill="white"/>
<path d="M118.129 120.382C117.49 120.075 116.824 119.829 116.139 119.649C115.548 119.505 114.979 119.278 114.449 118.974C114.314 118.903 114.199 118.799 114.115 118.67C114.03 118.542 113.98 118.394 113.969 118.24C113.97 118.086 114.012 117.935 114.088 117.803C114.165 117.67 114.274 117.56 114.406 117.484C114.764 117.267 115.178 117.164 115.594 117.187C116.016 117.164 116.434 117.287 116.779 117.535C116.923 117.654 117.038 117.805 117.114 117.977C117.19 118.15 117.224 118.337 117.216 118.526H120.032C120.04 117.914 119.845 117.317 119.48 116.831C119.078 116.311 118.541 115.916 117.931 115.69C117.21 115.411 116.444 115.274 115.673 115.286C114.883 115.274 114.097 115.398 113.348 115.653C112.736 115.849 112.186 116.205 111.752 116.684C111.381 117.104 111.179 117.65 111.185 118.214C111.185 119.373 111.941 120.286 113.453 120.951C114.042 121.2 114.644 121.413 115.258 121.59C115.794 121.726 116.307 121.939 116.782 122.224C116.922 122.317 117.035 122.445 117.112 122.595C117.188 122.746 117.225 122.914 117.219 123.083C117.224 123.234 117.189 123.384 117.118 123.517C117.047 123.65 116.942 123.761 116.815 123.839C116.481 124.035 116.098 124.128 115.713 124.107C115.16 124.154 114.606 124.015 114.139 123.71C113.969 123.557 113.837 123.365 113.753 123.15C113.669 122.936 113.636 122.704 113.655 122.474H110.834C110.821 123.134 111.024 123.779 111.412 124.309C111.863 124.882 112.464 125.315 113.146 125.556C113.966 125.87 114.837 126.024 115.713 126.011C117.053 126.011 118.111 125.751 118.88 125.23C119.243 125.005 119.54 124.686 119.743 124.307C119.945 123.927 120.045 123.5 120.032 123.068C120.032 121.928 119.398 121.033 118.129 120.382Z" fill="white"/>
<path d="M127.8 115.422V122.239C127.823 122.491 127.795 122.745 127.718 122.985C127.641 123.225 127.517 123.447 127.352 123.637C126.983 123.948 126.509 124.101 126.031 124.066C124.875 124.066 124.282 123.495 124.25 122.353V115.422H121.423V122.301C121.408 122.821 121.513 123.337 121.73 123.808C121.947 124.279 122.27 124.692 122.672 125.013C123.488 125.671 124.608 126 126.031 126C126.867 126.02 127.698 125.869 128.476 125.556C129.12 125.296 129.673 124.845 130.061 124.261C130.439 123.663 130.631 122.964 130.613 122.254V115.422H127.8Z" fill="white"/>
<path d="M135.2 123.923V115.422H132.386V125.857H140.097V123.923H135.2Z" fill="white"/>
<path d="M139.028 115.422V117.366H142.466V125.857H145.279V117.366H148.782V115.422H139.028Z" fill="white"/>
<path d="M150.161 115.422V125.857H152.967V115.422H150.161Z" fill="white"/>
<path d="M161.862 115.422V121.916L157.734 115.422H154.921V125.857H157.734V119.362L161.869 125.857H164.668V115.422H161.862Z" fill="white"/>
<path d="M171.23 120.28V122.004H173.187V123.626C172.705 123.953 172.129 124.107 171.551 124.063C170.695 124.063 170.07 123.798 169.673 123.277C169.276 122.756 169.074 121.971 169.074 120.929V120.298C169.031 119.491 169.235 118.689 169.659 118.005C169.845 117.744 170.092 117.535 170.377 117.395C170.663 117.256 170.978 117.19 171.295 117.205C171.776 117.171 172.254 117.3 172.656 117.572C173.015 117.89 173.239 118.337 173.281 118.819H176.007C175.975 118.299 175.832 117.791 175.589 117.331C175.346 116.872 175.008 116.471 174.599 116.155C173.792 115.561 172.664 115.264 171.215 115.264C170.303 115.245 169.4 115.458 168.59 115.884C167.846 116.283 167.239 116.901 166.846 117.656C166.425 118.487 166.215 119.412 166.235 120.346V121.248C166.298 122.738 166.787 123.901 167.701 124.738C168.616 125.574 169.837 125.993 171.363 125.993C172.291 126.002 173.215 125.869 174.104 125.6C174.809 125.414 175.461 125.062 176.007 124.573V120.28H171.23Z" fill="white"/>
<path d="M174.584 108.131C174.465 108.887 174.08 109.574 173.501 110.065C172.923 110.543 172.199 110.803 171.453 110.798H23.0117C22.4739 110.798 21.9464 110.649 21.4852 110.367C21.0241 110.086 20.6466 109.683 20.3928 109.202C20.1391 108.72 20.0186 108.177 20.0441 107.631C20.0697 107.086 20.2403 106.557 20.538 106.102L75.2994 22.6308C75.3674 22.5276 75.4065 22.4076 75.4126 22.2836C75.4187 22.1596 75.3916 22.0363 75.3342 21.9267C75.2767 21.8171 75.1911 21.7254 75.0864 21.6613C74.9817 21.5973 74.8618 21.5634 74.7396 21.5631H62.678C57.5788 21.5631 53.409 22.1636 50.1685 23.3647C45.404 25.0085 41.3112 28.5811 37.8902 34.0825C34.3384 39.8942 31.4282 46.0861 29.2123 52.546L29.0642 52.9129C29.0642 52.9312 29.0642 52.9606 29.0461 52.9789L28.8078 53.9439C28.7788 54.0626 28.7189 54.1713 28.6344 54.2584C28.5499 54.3456 28.4439 54.408 28.3275 54.4393C27.9258 54.539 27.513 54.5846 27.0997 54.575C26.5664 54.5712 26.0398 54.4537 25.554 54.2301C25.4337 54.1771 25.3312 54.0894 25.2594 53.9779C25.1875 53.8664 25.1493 53.736 25.1496 53.6027V20.6861C25.1496 20.5042 25.2207 20.3296 25.3474 20.201C25.474 20.0723 25.6458 20 25.8249 20H108.682C108.804 20.0001 108.924 20.0336 109.028 20.0972C109.133 20.1608 109.219 20.252 109.276 20.3611C109.334 20.4702 109.362 20.5932 109.356 20.7169C109.351 20.8407 109.313 20.9607 109.245 21.0641L52.6458 107.841C52.578 107.946 52.5395 108.067 52.5346 108.192C52.5297 108.317 52.5586 108.441 52.6181 108.551C52.6776 108.66 52.7655 108.751 52.8722 108.814C52.979 108.876 53.1005 108.908 53.2236 108.905H67.2354C68.1238 108.905 69.0013 108.882 69.868 108.835H84.4251L101.738 82.1272L119.05 108.835H137.583C137.583 108.835 146.68 109.426 148.54 103.493C148.763 102.96 148.876 102.385 148.872 101.805C148.872 101.684 148.872 101.559 148.872 101.438C148.872 101.372 148.872 101.306 148.872 101.24L148.85 101.196C148.636 99.0753 147.353 96.5374 145.001 93.5825C142.413 90.3389 136.962 85.3243 128.649 78.5387C120.336 71.7531 114.995 66.8498 112.626 63.8288C110.257 60.8078 109.073 58.1574 109.076 55.8776C109.076 52.1252 111.856 49.0871 117.418 46.7633C122.979 44.4394 129.448 43.2763 136.825 43.2738C143.289 43.2625 149.707 44.3795 155.798 46.5761C155.916 46.6125 156.042 46.6125 156.16 46.5761C157.809 46.1505 160.223 45.3567 163.404 44.1948C165.274 43.5711 166.541 43.2592 167.203 43.2592C167.591 43.2545 167.979 43.2964 168.358 43.3839C168.691 43.5454 168.857 43.7288 168.857 43.9343V69.7472C168.857 70.0334 168.633 70.2573 168.196 70.4187C167.718 70.589 167.214 70.6722 166.708 70.6645C166.194 70.6966 165.682 70.5916 165.22 70.36C164.892 70.1582 164.614 69.5454 164.397 68.5254C162.952 60.9986 159.868 54.8967 155.145 50.2197C151.741 46.9516 147.285 45.3176 141.779 45.3176C138.695 45.3176 136.107 45.7457 134.015 46.6018C131.923 47.458 130.873 48.626 130.866 50.1059C130.866 53.8167 137.418 60.5241 150.522 70.2279C159.33 76.6711 164.043 83.338 166.91 87.4292C173.385 96.6463 175.151 104.429 174.584 108.131Z" fill="white"/>
<path d="M148.872 101.222C148.872 101.288 148.872 101.354 148.872 101.42C148.872 101.339 148.872 101.258 148.854 101.178L148.872 101.222Z" fill="white"/>
</svg>
