<svg width="1050" height="675" viewBox="0 0 1050 675" fill="none" xmlns="http://www.w3.org/2000/svg">
<g clip-path="url(#clip0_197_448)">
<rect width="1050" height="675" rx="40" fill="url(#paint0_linear_197_448)"/>
<g filter="url(#filter0_d_197_448)">
<rect x="594" y="698.479" width="845" height="628" transform="rotate(-44.6152 594 698.479)" fill="url(#paint1_linear_197_448)"/>
</g>
<g filter="url(#filter1_d_197_448)">
<rect x="514" y="-120.521" width="845" height="628" transform="rotate(-44.6152 514 -120.521)" fill="url(#paint2_linear_197_448)"/>
</g>
<path d="M110.264 236.38H86.0537C84.3892 236.38 83.0425 237.815 83.0425 239.57L83.0273 258.709C83.0273 260.464 84.3892 261.899 86.0537 261.899H110.264C111.929 261.899 113.291 260.464 113.291 258.709V239.57C113.291 237.815 111.929 236.38 110.264 236.38ZM109.659 243.158L98.9609 250.208C98.4767 250.527 97.8412 250.527 97.357 250.208L86.6589 243.158C86.5072 243.069 86.3743 242.947 86.2684 242.802C86.1624 242.656 86.0855 242.49 86.0424 242.312C85.9993 242.134 85.9909 241.949 86.0176 241.768C86.0443 241.587 86.1056 241.413 86.1978 241.258C86.2901 241.102 86.4113 240.968 86.5541 240.863C86.697 240.758 86.8585 240.685 87.0289 240.648C87.1993 240.611 87.3751 240.611 87.5456 240.648C87.7161 240.684 87.8777 240.757 88.0208 240.862L98.1589 247.544L108.297 240.862C108.44 240.757 108.602 240.684 108.772 240.648C108.943 240.611 109.119 240.611 109.289 240.648C109.459 240.685 109.621 240.758 109.764 240.863C109.907 240.968 110.028 241.102 110.12 241.258C110.212 241.413 110.274 241.587 110.3 241.768C110.327 241.949 110.319 242.134 110.275 242.312C110.232 242.49 110.155 242.656 110.05 242.802C109.944 242.947 109.811 243.069 109.659 243.158Z" fill="white"/>
<path d="M127.694 261.139V258.528L136.608 247.638H128.067V243.46H142.911V246.519L134.184 257.26H143.172V261.139H127.694ZM154.799 261.512C151.492 261.512 149.067 260.716 147.526 259.125C145.984 257.509 145.213 255.234 145.213 252.3C145.213 249.366 145.984 247.103 147.526 245.512C149.092 243.896 151.517 243.088 154.799 243.088C158.106 243.088 160.53 243.896 162.071 245.512C163.638 247.103 164.421 249.366 164.421 252.3C164.421 255.234 163.65 257.509 162.109 259.125C160.567 260.716 158.13 261.512 154.799 261.512ZM154.799 257.223C156.415 257.223 157.571 256.862 158.267 256.141C158.963 255.395 159.311 254.115 159.311 252.3C159.311 250.485 158.963 249.217 158.267 248.495C157.571 247.75 156.415 247.377 154.799 247.377C153.207 247.377 152.064 247.75 151.367 248.495C150.671 249.217 150.323 250.485 150.323 252.3C150.323 254.115 150.671 255.395 151.367 256.141C152.064 256.862 153.207 257.223 154.799 257.223ZM173.968 261.512C172.651 261.512 171.395 261.412 170.201 261.214C169.008 261.039 168.051 260.816 167.33 260.542V256.365C168.2 256.713 169.182 256.987 170.276 257.186C171.37 257.36 172.377 257.447 173.297 257.447C174.54 257.447 175.41 257.372 175.908 257.223C176.43 257.074 176.691 256.738 176.691 256.216C176.691 255.619 176.293 255.184 175.497 254.91C174.727 254.637 173.571 254.252 172.029 253.754C170.413 253.207 169.17 252.548 168.299 251.778C167.429 251.007 166.994 249.863 166.994 248.346C166.994 246.656 167.603 245.363 168.821 244.467C170.065 243.547 172.054 243.088 174.789 243.088C175.883 243.088 176.915 243.175 177.884 243.349C178.854 243.498 179.675 243.684 180.346 243.908V248.048C179.675 247.725 178.904 247.488 178.034 247.339C177.163 247.165 176.355 247.078 175.609 247.078C174.54 247.078 173.682 247.153 173.036 247.302C172.414 247.451 172.104 247.774 172.104 248.272C172.104 248.819 172.439 249.204 173.111 249.428C173.807 249.652 174.876 249.987 176.318 250.435C177.735 250.858 178.842 251.318 179.637 251.815C180.433 252.312 180.992 252.909 181.316 253.605C181.639 254.276 181.801 255.122 181.801 256.141C181.801 259.722 179.19 261.512 173.968 261.512ZM190.306 261.512C189.187 261.512 188.143 261.313 187.173 260.915C186.228 260.492 185.458 259.883 184.861 259.088C184.289 258.267 184.003 257.248 184.003 256.029C184.003 254.289 184.612 252.896 185.831 251.852C187.074 250.808 188.901 250.286 191.313 250.286H196.535V249.801C196.535 248.707 196.224 247.936 195.602 247.488C195.005 247.041 193.787 246.817 191.947 246.817C189.933 246.817 187.994 247.128 186.129 247.75V244.206C186.949 243.883 187.944 243.622 189.113 243.423C190.306 243.199 191.599 243.088 192.991 243.088C195.652 243.088 197.703 243.635 199.145 244.729C200.612 245.798 201.346 247.526 201.346 249.913V261.139H196.982L196.721 259.535C196.025 260.157 195.167 260.642 194.148 260.99C193.128 261.338 191.848 261.512 190.306 261.512ZM191.686 258.193C192.805 258.193 193.775 258.006 194.595 257.633C195.416 257.26 196.062 256.788 196.535 256.216V253.419H191.425C189.461 253.419 188.479 254.227 188.479 255.843C188.479 257.409 189.548 258.193 191.686 258.193ZM205.4 261.139V236.001H210.435V249.838L217.037 243.46H222.78L215.657 250.696L223.191 261.139H217.857L212.487 253.344L210.435 255.321V261.139H205.4ZM238.835 266.062C236.299 266.062 234.036 265.664 232.047 264.869C230.083 264.073 228.529 262.805 227.385 261.064C226.266 259.299 225.706 256.987 225.706 254.127C225.706 251.218 226.253 248.844 227.347 247.004C228.466 245.139 230.033 243.771 232.047 242.901C234.086 242.006 236.485 241.558 239.245 241.558C243.124 241.558 246.095 242.453 248.159 244.244C250.247 246.009 251.292 248.483 251.292 251.666C251.292 254.053 250.695 255.917 249.501 257.26C248.333 258.603 246.53 259.274 244.094 259.274H242.415C241.818 259.821 241.097 260.256 240.252 260.579C239.407 260.878 238.362 261.027 237.119 261.027C235.776 261.027 234.62 260.704 233.651 260.057C232.706 259.386 232.233 258.317 232.233 256.85C232.233 255.507 232.656 254.45 233.501 253.68C234.347 252.909 235.752 252.523 237.716 252.523H241.93V251.628C241.93 250.684 241.694 250.012 241.222 249.614C240.774 249.192 239.817 248.98 238.35 248.98C237.604 248.98 236.858 249.042 236.112 249.167C235.366 249.291 234.633 249.465 233.912 249.689V247.563C234.558 247.29 235.341 247.078 236.261 246.929C237.206 246.78 238.163 246.705 239.133 246.705C241.172 246.705 242.639 247.128 243.534 247.973C244.454 248.794 244.914 250.124 244.914 251.964V256.738C245.859 256.738 246.58 256.365 247.077 255.619C247.575 254.873 247.823 253.63 247.823 251.889C247.823 249.453 247.115 247.613 245.697 246.37C244.305 245.102 242.154 244.467 239.245 244.467C235.988 244.467 233.501 245.238 231.786 246.78C230.07 248.321 229.212 250.783 229.212 254.165C229.212 256.377 229.61 258.143 230.406 259.461C231.226 260.778 232.345 261.723 233.762 262.295C235.205 262.892 236.87 263.19 238.76 263.19C241.495 263.19 243.646 262.954 245.212 262.482V265.391C244.442 265.565 243.509 265.714 242.415 265.838C241.321 265.987 240.128 266.062 238.835 266.062ZM238.238 258.901C239.804 258.901 241.035 258.342 241.93 257.223V254.537H238.462C237.318 254.537 236.535 254.736 236.112 255.134C235.714 255.532 235.515 256.091 235.515 256.813C235.515 257.583 235.752 258.13 236.224 258.454C236.721 258.752 237.393 258.901 238.238 258.901ZM254.079 261.139V258.528L262.993 247.638H254.452V243.46H269.296V246.519L260.569 257.26H269.557V261.139H254.079ZM281.184 261.512C277.877 261.512 275.452 260.716 273.911 259.125C272.369 257.509 271.598 255.234 271.598 252.3C271.598 249.366 272.369 247.103 273.911 245.512C275.477 243.896 277.901 243.088 281.184 243.088C284.49 243.088 286.915 243.896 288.456 245.512C290.023 247.103 290.806 249.366 290.806 252.3C290.806 255.234 290.035 257.509 288.494 259.125C286.952 260.716 284.515 261.512 281.184 261.512ZM281.184 257.223C282.8 257.223 283.956 256.862 284.652 256.141C285.348 255.395 285.696 254.115 285.696 252.3C285.696 250.485 285.348 249.217 284.652 248.495C283.956 247.75 282.8 247.377 281.184 247.377C279.592 247.377 278.448 247.75 277.752 248.495C277.056 249.217 276.708 250.485 276.708 252.3C276.708 254.115 277.056 255.395 277.752 256.141C278.448 256.862 279.592 257.223 281.184 257.223ZM300.353 261.512C299.035 261.512 297.78 261.412 296.586 261.214C295.393 261.039 294.436 260.816 293.715 260.542V256.365C294.585 256.713 295.567 256.987 296.661 257.186C297.755 257.36 298.762 257.447 299.682 257.447C300.925 257.447 301.795 257.372 302.293 257.223C302.815 257.074 303.076 256.738 303.076 256.216C303.076 255.619 302.678 255.184 301.882 254.91C301.112 254.637 299.955 254.252 298.414 253.754C296.798 253.207 295.554 252.548 294.684 251.778C293.814 251.007 293.379 249.863 293.379 248.346C293.379 246.656 293.988 245.363 295.206 244.467C296.45 243.547 298.439 243.088 301.174 243.088C302.268 243.088 303.3 243.175 304.269 243.349C305.239 243.498 306.06 243.684 306.731 243.908V248.048C306.06 247.725 305.289 247.488 304.419 247.339C303.548 247.165 302.74 247.078 301.994 247.078C300.925 247.078 300.067 247.153 299.421 247.302C298.799 247.451 298.488 247.774 298.488 248.272C298.488 248.819 298.824 249.204 299.495 249.428C300.192 249.652 301.261 249.987 302.703 250.435C304.12 250.858 305.227 251.318 306.022 251.815C306.818 252.312 307.377 252.909 307.701 253.605C308.024 254.276 308.185 255.122 308.185 256.141C308.185 259.722 305.575 261.512 300.353 261.512ZM316.691 261.512C315.572 261.512 314.528 261.313 313.558 260.915C312.613 260.492 311.843 259.883 311.246 259.088C310.674 258.267 310.388 257.248 310.388 256.029C310.388 254.289 310.997 252.896 312.216 251.852C313.459 250.808 315.286 250.286 317.698 250.286H322.92V249.801C322.92 248.707 322.609 247.936 321.987 247.488C321.39 247.041 320.172 246.817 318.332 246.817C316.318 246.817 314.379 247.128 312.514 247.75V244.206C313.334 243.883 314.329 243.622 315.498 243.423C316.691 243.199 317.984 243.088 319.376 243.088C322.037 243.088 324.088 243.635 325.53 244.729C326.997 245.798 327.731 247.526 327.731 249.913V261.139H323.367L323.106 259.535C322.41 260.157 321.552 260.642 320.533 260.99C319.513 261.338 318.233 261.512 316.691 261.512ZM318.071 258.193C319.19 258.193 320.16 258.006 320.98 257.633C321.801 257.26 322.447 256.788 322.92 256.216V253.419H317.81C315.846 253.419 314.864 254.227 314.864 255.843C314.864 257.409 315.933 258.193 318.071 258.193ZM331.785 261.139V236.001H336.82V249.838L343.422 243.46H349.165L342.042 250.696L349.576 261.139H344.242L338.872 253.344L336.82 255.321V261.139H331.785ZM352.091 261.139V257.372H356.194V261.139H352.091ZM359.685 261.139V236.001H364.72V244.952C365.441 244.405 366.323 243.958 367.368 243.61C368.412 243.262 369.543 243.088 370.762 243.088C373.099 243.088 374.802 243.635 375.871 244.729C376.94 245.823 377.475 247.513 377.475 249.801V261.139H372.44V250.062C372.44 248.868 372.191 248.023 371.694 247.526C371.222 247.028 370.327 246.78 369.009 246.78C368.238 246.78 367.455 246.954 366.659 247.302C365.888 247.65 365.242 248.085 364.72 248.607V261.139H359.685ZM381.574 261.139V243.46H386.236L386.46 245.288C387.256 244.791 388.238 244.343 389.407 243.945C390.6 243.523 391.769 243.237 392.912 243.088V246.892C392.241 246.991 391.508 247.14 390.712 247.339C389.916 247.538 389.158 247.762 388.437 248.011C387.716 248.259 387.107 248.52 386.609 248.794V261.139H381.574Z" fill="white"/>
<path d="M104.665 296.205H89.4063C88.8282 296.205 88.2738 296.435 87.865 296.844C87.4562 297.252 87.2266 297.807 87.2266 298.385V324.542C87.2266 325.12 87.4562 325.674 87.865 326.083C88.2738 326.492 88.8282 326.722 89.4063 326.722H104.665C105.243 326.722 105.797 326.492 106.206 326.083C106.615 325.674 106.844 325.12 106.844 324.542V298.385C106.844 297.807 106.615 297.252 106.206 296.844C105.797 296.435 105.243 296.205 104.665 296.205ZM98.1253 324.542H95.9456V322.362H98.1253V324.542ZM89.4063 320.182V298.385H104.665V320.182H89.4063Z" fill="white"/>
<path d="M136.303 324.433C133.668 324.433 131.554 323.936 129.963 322.941C128.372 321.947 127.216 320.505 126.495 318.615C125.798 316.7 125.45 314.413 125.45 311.752C125.45 309.067 125.798 306.78 126.495 304.89C127.216 303 128.372 301.558 129.963 300.563C131.554 299.569 133.668 299.072 136.303 299.072C138.939 299.072 141.053 299.569 142.644 300.563C144.235 301.558 145.379 303 146.075 304.89C146.796 306.78 147.157 309.067 147.157 311.752C147.157 314.413 146.796 316.7 146.075 318.615C145.379 320.505 144.235 321.947 142.644 322.941C141.053 323.936 138.939 324.433 136.303 324.433ZM136.303 320.107C138.467 320.107 139.959 319.386 140.779 317.944C141.624 316.501 142.047 314.438 142.047 311.752C142.047 309.067 141.624 307.003 140.779 305.561C139.959 304.119 138.467 303.398 136.303 303.398C134.14 303.398 132.636 304.119 131.791 305.561C130.97 307.003 130.56 309.067 130.56 311.752C130.56 314.438 130.97 316.501 131.791 317.944C132.636 319.386 134.14 320.107 136.303 320.107ZM158.131 323.836C156.888 323.836 155.806 323.762 154.886 323.613C153.966 323.463 153.084 323.24 152.238 322.941V318.615C153.805 319.236 155.657 319.547 157.795 319.547C159.859 319.547 161.401 319.1 162.42 318.205C163.465 317.309 163.987 316.128 163.987 314.661V313.505C163.191 314.052 162.259 314.475 161.189 314.773C160.12 315.072 159.138 315.221 158.243 315.221C155.384 315.221 153.283 314.525 151.94 313.132C150.597 311.74 149.926 309.776 149.926 307.239C149.926 305.623 150.249 304.206 150.896 302.988C151.567 301.769 152.586 300.812 153.954 300.116C155.346 299.42 157.124 299.072 159.287 299.072C162.42 299.072 164.77 299.842 166.336 301.384C167.928 302.926 168.723 305.3 168.723 308.508V313.654C168.723 315.644 168.288 317.409 167.418 318.951C166.573 320.467 165.354 321.661 163.763 322.531C162.196 323.401 160.319 323.836 158.131 323.836ZM159.175 311.379C159.996 311.379 160.829 311.23 161.674 310.932C162.52 310.633 163.29 310.248 163.987 309.776V307.501C163.987 304.368 162.408 302.801 159.25 302.801C157.659 302.801 156.453 303.187 155.632 303.957C154.837 304.728 154.439 305.76 154.439 307.053C154.439 308.421 154.787 309.49 155.483 310.26C156.179 311.006 157.41 311.379 159.175 311.379ZM175.404 323.463V303.995L171.488 304.629V300.414L180.439 299.072V323.463H175.404ZM200.344 323.836C199.101 323.836 198.02 323.762 197.1 323.613C196.18 323.463 195.297 323.24 194.452 322.941V318.615C196.018 319.236 197.87 319.547 200.009 319.547C202.073 319.547 203.614 319.1 204.634 318.205C205.678 317.309 206.2 316.128 206.2 314.661V313.505C205.404 314.052 204.472 314.475 203.403 314.773C202.334 315.072 201.351 315.221 200.456 315.221C197.597 315.221 195.496 314.525 194.153 313.132C192.811 311.74 192.139 309.776 192.139 307.239C192.139 305.623 192.462 304.206 193.109 302.988C193.78 301.769 194.8 300.812 196.167 300.116C197.56 299.42 199.337 299.072 201.501 299.072C204.634 299.072 206.983 299.842 208.55 301.384C210.141 302.926 210.937 305.3 210.937 308.508V313.654C210.937 315.644 210.501 317.409 209.631 318.951C208.786 320.467 207.567 321.661 205.976 322.531C204.41 323.401 202.532 323.836 200.344 323.836ZM201.389 311.379C202.209 311.379 203.042 311.23 203.888 310.932C204.733 310.633 205.504 310.248 206.2 309.776V307.501C206.2 304.368 204.621 302.801 201.463 302.801C199.872 302.801 198.666 303.187 197.846 303.957C197.05 304.728 196.652 305.76 196.652 307.053C196.652 308.421 197 309.49 197.696 310.26C198.393 311.006 199.623 311.379 201.389 311.379ZM224.554 324.433C221.919 324.433 219.805 323.936 218.214 322.941C216.623 321.947 215.467 320.505 214.745 318.615C214.049 316.7 213.701 314.413 213.701 311.752C213.701 309.067 214.049 306.78 214.745 304.89C215.467 303 216.623 301.558 218.214 300.563C219.805 299.569 221.919 299.072 224.554 299.072C227.19 299.072 229.303 299.569 230.895 300.563C232.486 301.558 233.63 303 234.326 304.89C235.047 306.78 235.408 309.067 235.408 311.752C235.408 314.413 235.047 316.7 234.326 318.615C233.63 320.505 232.486 321.947 230.895 322.941C229.303 323.936 227.19 324.433 224.554 324.433ZM224.554 320.107C226.718 320.107 228.209 319.386 229.03 317.944C229.875 316.501 230.298 314.438 230.298 311.752C230.298 309.067 229.875 307.003 229.03 305.561C228.209 304.119 226.718 303.398 224.554 303.398C222.391 303.398 220.887 304.119 220.042 305.561C219.221 307.003 218.811 309.067 218.811 311.752C218.811 314.438 219.221 316.501 220.042 317.944C220.887 319.386 222.391 320.107 224.554 320.107ZM248.46 323.463L257.001 303.323H245.999V299.445H262.521V302.54L253.682 323.463H248.46ZM275.8 324.433C273.165 324.433 271.051 323.936 269.46 322.941C267.869 321.947 266.713 320.505 265.991 318.615C265.295 316.7 264.947 314.413 264.947 311.752C264.947 309.067 265.295 306.78 265.991 304.89C266.713 303 267.869 301.558 269.46 300.563C271.051 299.569 273.165 299.072 275.8 299.072C278.436 299.072 280.549 299.569 282.141 300.563C283.732 301.558 284.876 303 285.572 304.89C286.293 306.78 286.654 309.067 286.654 311.752C286.654 314.413 286.293 316.7 285.572 318.615C284.876 320.505 283.732 321.947 282.141 322.941C280.549 323.936 278.436 324.433 275.8 324.433ZM275.8 320.107C277.964 320.107 279.455 319.386 280.276 317.944C281.121 316.501 281.544 314.438 281.544 311.752C281.544 309.067 281.121 307.003 280.276 305.561C279.455 304.119 277.964 303.398 275.8 303.398C273.637 303.398 272.133 304.119 271.288 305.561C270.467 307.003 270.057 309.067 270.057 311.752C270.057 314.438 270.467 316.501 271.288 317.944C272.133 319.386 273.637 320.107 275.8 320.107ZM300.276 324.433C297.64 324.433 295.527 323.936 293.936 322.941C292.344 321.947 291.188 320.505 290.467 318.615C289.771 316.7 289.423 314.413 289.423 311.752C289.423 309.067 289.771 306.78 290.467 304.89C291.188 303 292.344 301.558 293.936 300.563C295.527 299.569 297.64 299.072 300.276 299.072C302.912 299.072 305.025 299.569 306.616 300.563C308.208 301.558 309.352 303 310.048 304.89C310.769 306.78 311.129 309.067 311.129 311.752C311.129 314.413 310.769 316.7 310.048 318.615C309.352 320.505 308.208 321.947 306.616 322.941C305.025 323.936 302.912 324.433 300.276 324.433ZM300.276 320.107C302.439 320.107 303.931 319.386 304.752 317.944C305.597 316.501 306.02 314.438 306.02 311.752C306.02 309.067 305.597 307.003 304.752 305.561C303.931 304.119 302.439 303.398 300.276 303.398C298.113 303.398 296.609 304.119 295.763 305.561C294.943 307.003 294.532 309.067 294.532 311.752C294.532 314.438 294.943 316.501 295.763 317.944C296.609 319.386 298.113 320.107 300.276 320.107ZM324.752 324.433C322.116 324.433 320.003 323.936 318.411 322.941C316.82 321.947 315.664 320.505 314.943 318.615C314.247 316.7 313.899 314.413 313.899 311.752C313.899 309.067 314.247 306.78 314.943 304.89C315.664 303 316.82 301.558 318.411 300.563C320.003 299.569 322.116 299.072 324.752 299.072C327.387 299.072 329.501 299.569 331.092 300.563C332.683 301.558 333.827 303 334.523 304.89C335.244 306.78 335.605 309.067 335.605 311.752C335.605 314.413 335.244 316.7 334.523 318.615C333.827 320.505 332.683 321.947 331.092 322.941C329.501 323.936 327.387 324.433 324.752 324.433ZM324.752 320.107C326.915 320.107 328.407 319.386 329.227 317.944C330.073 316.501 330.495 314.438 330.495 311.752C330.495 309.067 330.073 307.003 329.227 305.561C328.407 304.119 326.915 303.398 324.752 303.398C322.589 303.398 321.084 304.119 320.239 305.561C319.418 307.003 319.008 309.067 319.008 311.752C319.008 314.438 319.418 316.501 320.239 317.944C321.084 319.386 322.589 320.107 324.752 320.107ZM349.227 324.433C346.592 324.433 344.478 323.936 342.887 322.941C341.296 321.947 340.14 320.505 339.419 318.615C338.722 316.7 338.374 314.413 338.374 311.752C338.374 309.067 338.722 306.78 339.419 304.89C340.14 303 341.296 301.558 342.887 300.563C344.478 299.569 346.592 299.072 349.227 299.072C351.863 299.072 353.977 299.569 355.568 300.563C357.159 301.558 358.303 303 358.999 304.89C359.72 306.78 360.081 309.067 360.081 311.752C360.081 314.413 359.72 316.7 358.999 318.615C358.303 320.505 357.159 321.947 355.568 322.941C353.977 323.936 351.863 324.433 349.227 324.433ZM349.227 320.107C351.391 320.107 352.883 319.386 353.703 317.944C354.548 316.501 354.971 314.438 354.971 311.752C354.971 309.067 354.548 307.003 353.703 305.561C352.883 304.119 351.391 303.398 349.227 303.398C347.064 303.398 345.56 304.119 344.715 305.561C343.894 307.003 343.484 309.067 343.484 311.752C343.484 314.438 343.894 316.501 344.715 317.944C345.56 319.386 347.064 320.107 349.227 320.107Z" fill="white"/>
<path d="M96.6863 356.735C90.9291 356.735 86.2578 360.94 86.2578 366.121C86.2578 374.463 96.6863 385.935 96.6863 385.935C96.6863 385.935 107.115 374.463 107.115 366.121C107.115 360.94 102.444 356.735 96.6863 356.735ZM96.6863 371.335C95.8613 371.335 95.0548 371.09 94.3688 370.632C93.6828 370.173 93.1482 369.522 92.8325 368.76C92.5167 367.998 92.4341 367.159 92.5951 366.35C92.756 365.54 93.1533 364.797 93.7367 364.214C94.3201 363.63 95.0634 363.233 95.8725 363.072C96.6817 362.911 97.5205 362.994 98.2827 363.31C99.0449 363.625 99.6964 364.16 100.155 364.846C100.613 365.532 100.858 366.338 100.858 367.163C100.857 368.269 100.417 369.33 99.6346 370.112C98.8526 370.894 97.7923 371.334 96.6863 371.335Z" fill="white"/>
<path d="M125.497 383.335V359.316H135.567C139.172 359.316 141.882 360.248 143.698 362.113C145.538 363.953 146.458 367.061 146.458 371.437C146.458 375.565 145.55 378.586 143.735 380.5C141.945 382.39 139.222 383.335 135.567 383.335H125.497ZM130.532 379.456H134.858C136.276 379.456 137.469 379.245 138.439 378.822C139.409 378.374 140.13 377.579 140.602 376.435C141.099 375.266 141.348 373.6 141.348 371.437C141.348 369.274 141.124 367.621 140.677 366.477C140.229 365.333 139.533 364.55 138.588 364.127C137.643 363.704 136.4 363.493 134.858 363.493H130.532V379.456ZM149.973 383.335V365.656H154.635L154.858 367.484C155.654 366.987 156.636 366.539 157.805 366.141C158.998 365.718 160.167 365.432 161.311 365.283V369.088C160.639 369.187 159.906 369.336 159.11 369.535C158.315 369.734 157.556 369.958 156.835 370.206C156.114 370.455 155.505 370.716 155.008 370.99V383.335H149.973ZM168.314 383.708C167.195 383.708 166.151 383.509 165.181 383.111C164.236 382.688 163.465 382.079 162.869 381.283C162.297 380.463 162.011 379.443 162.011 378.225C162.011 376.485 162.62 375.092 163.838 374.048C165.082 373.004 166.909 372.481 169.321 372.481H174.542V371.997C174.542 370.903 174.232 370.132 173.61 369.684C173.013 369.237 171.795 369.013 169.955 369.013C167.941 369.013 166.002 369.324 164.137 369.945V366.402C164.957 366.079 165.952 365.818 167.121 365.619C168.314 365.395 169.607 365.283 170.999 365.283C173.66 365.283 175.711 365.83 177.153 366.924C178.62 367.994 179.354 369.722 179.354 372.109V383.335H174.99L174.729 381.731C174.033 382.353 173.175 382.837 172.156 383.186C171.136 383.534 169.856 383.708 168.314 383.708ZM169.694 380.388C170.813 380.388 171.783 380.202 172.603 379.829C173.424 379.456 174.07 378.983 174.542 378.412V375.614H169.433C167.469 375.614 166.486 376.422 166.486 378.039C166.486 379.605 167.556 380.388 169.694 380.388ZM190.867 389.899C189.55 389.899 188.195 389.812 186.802 389.638C185.435 389.464 184.278 389.215 183.334 388.892V385.125C184.328 385.448 185.497 385.697 186.839 385.871C188.182 386.07 189.438 386.169 190.606 386.169C192.322 386.169 193.565 386.07 194.336 385.871C195.107 385.697 195.492 385.374 195.492 384.901C195.492 384.503 195.318 384.23 194.97 384.081C194.647 383.931 193.951 383.857 192.881 383.857H188.07C184.913 383.857 183.334 382.688 183.334 380.351C183.334 379.63 183.533 378.971 183.93 378.374C184.328 377.778 184.962 377.305 185.832 376.957C183.818 375.938 182.811 374.222 182.811 371.81C182.811 369.523 183.52 367.869 184.937 366.85C186.355 365.805 188.456 365.283 191.24 365.283C191.812 365.283 192.434 365.333 193.105 365.432C193.801 365.507 194.324 365.582 194.672 365.656H201.31L201.199 368.826H198.401C199.172 369.548 199.558 370.555 199.558 371.847C199.558 373.663 198.986 375.117 197.842 376.211C196.698 377.28 195.007 377.815 192.77 377.815C192.372 377.815 191.986 377.802 191.613 377.778C191.265 377.728 190.905 377.678 190.532 377.628C189.786 377.728 189.152 377.902 188.63 378.151C188.132 378.399 187.884 378.735 187.884 379.158C187.884 379.729 188.393 380.015 189.413 380.015H194.411C196.201 380.015 197.581 380.426 198.551 381.246C199.52 382.042 200.005 383.21 200.005 384.752C200.005 386.492 199.222 387.785 197.655 388.631C196.089 389.476 193.826 389.899 190.867 389.899ZM191.278 374.98C192.77 374.98 193.801 374.732 194.373 374.234C194.97 373.712 195.268 372.842 195.268 371.624C195.268 370.405 194.97 369.523 194.373 368.976C193.801 368.429 192.77 368.155 191.278 368.155C189.86 368.155 188.841 368.429 188.219 368.976C187.598 369.498 187.287 370.38 187.287 371.624C187.287 372.767 187.573 373.613 188.145 374.16C188.742 374.707 189.786 374.98 191.278 374.98ZM208.415 383.708C207.296 383.708 206.252 383.509 205.282 383.111C204.337 382.688 203.566 382.079 202.97 381.283C202.398 380.463 202.112 379.443 202.112 378.225C202.112 376.485 202.721 375.092 203.939 374.048C205.182 373.004 207.01 372.481 209.422 372.481H214.643V371.997C214.643 370.903 214.332 370.132 213.711 369.684C213.114 369.237 211.896 369.013 210.056 369.013C208.042 369.013 206.102 369.324 204.238 369.945V366.402C205.058 366.079 206.053 365.818 207.221 365.619C208.415 365.395 209.708 365.283 211.1 365.283C213.761 365.283 215.812 365.83 217.254 366.924C218.721 367.994 219.455 369.722 219.455 372.109V383.335H215.091L214.83 381.731C214.134 382.353 213.276 382.837 212.256 383.186C211.237 383.534 209.956 383.708 208.415 383.708ZM209.795 380.388C210.914 380.388 211.883 380.202 212.704 379.829C213.524 379.456 214.171 378.983 214.643 378.412V375.614H209.534C207.569 375.614 206.587 376.422 206.587 378.039C206.587 379.605 207.656 380.388 209.795 380.388ZM223.509 383.335V365.656H228.171L228.358 367.335C229.079 366.788 229.986 366.315 231.08 365.917C232.199 365.495 233.368 365.283 234.586 365.283C236.923 365.283 238.626 365.83 239.696 366.924C240.765 368.018 241.299 369.709 241.299 371.997V383.335H236.264V372.258C236.264 371.064 236.016 370.219 235.518 369.722C235.046 369.224 234.151 368.976 232.833 368.976C232.062 368.976 231.279 369.15 230.483 369.498C229.713 369.846 229.066 370.281 228.544 370.803V383.335H223.509ZM246.63 362.411V358.458H252.112V362.411H246.63ZM247.04 383.335V369.386H244.392L244.839 365.656H252.075V383.335H247.04ZM262.628 363.866L265.611 356.892H269.975L266.693 363.866H262.628ZM265.388 383.708C262.23 383.708 259.806 382.924 258.115 381.358C256.449 379.792 255.616 377.504 255.616 374.495C255.616 371.387 256.511 369.075 258.301 367.558C260.116 366.042 262.528 365.283 265.537 365.283C266.78 365.283 267.849 365.37 268.744 365.544C269.639 365.718 270.51 366.004 271.355 366.402V370.02C270.733 369.722 270.012 369.485 269.192 369.311C268.371 369.137 267.489 369.05 266.544 369.05C264.654 369.05 263.212 369.448 262.217 370.244C261.223 371.015 260.725 372.432 260.725 374.495C260.725 376.385 261.173 377.765 262.068 378.635C262.988 379.506 264.468 379.941 266.506 379.941C267.377 379.941 268.222 379.854 269.043 379.68C269.888 379.506 270.671 379.245 271.392 378.896V382.626C269.726 383.347 267.725 383.708 265.388 383.708ZM276.131 362.411V358.458H281.614V362.411H276.131ZM276.542 383.335V369.386H273.894L274.341 365.656H281.577V383.335H276.542ZM297.229 383.335V363.866L293.313 364.5V360.286L302.264 358.943V383.335H297.229ZM316.66 383.335V378.3H305.023V374.868L317.294 359.316H321.695V374.234H324.044V378.3H321.695V383.335H316.66ZM309.835 374.421H317.518V364.873L309.835 374.421ZM325.546 387.81L326.703 380.314H331.029L329.164 387.81H325.546ZM341.973 383.335V380.724L354.057 363.493H342.57V359.316H360.621V362.374L348.649 379.456H360.807V383.335H341.973ZM369.874 383.708C368.755 383.708 367.711 383.509 366.741 383.111C365.797 382.688 365.026 382.079 364.429 381.283C363.857 380.463 363.571 379.443 363.571 378.225C363.571 376.485 364.18 375.092 365.399 374.048C366.642 373.004 368.469 372.481 370.881 372.481H376.103V371.997C376.103 370.903 375.792 370.132 375.17 369.684C374.574 369.237 373.355 369.013 371.515 369.013C369.501 369.013 367.562 369.324 365.697 369.945V366.402C366.518 366.079 367.512 365.818 368.681 365.619C369.874 365.395 371.167 365.283 372.56 365.283C375.22 365.283 377.271 365.83 378.713 366.924C380.18 367.994 380.914 369.722 380.914 372.109V383.335H376.55L376.289 381.731C375.593 382.353 374.735 382.837 373.716 383.186C372.696 383.534 371.416 383.708 369.874 383.708ZM371.254 380.388C372.373 380.388 373.343 380.202 374.163 379.829C374.984 379.456 375.63 378.983 376.103 378.412V375.614H370.993C369.029 375.614 368.047 376.422 368.047 378.039C368.047 379.605 369.116 380.388 371.254 380.388ZM392.428 389.899C391.11 389.899 389.755 389.812 388.362 389.638C386.995 389.464 385.839 389.215 384.894 388.892V385.125C385.888 385.448 387.057 385.697 388.4 385.871C389.742 386.07 390.998 386.169 392.167 386.169C393.882 386.169 395.126 386.07 395.896 385.871C396.667 385.697 397.052 385.374 397.052 384.901C397.052 384.503 396.878 384.23 396.53 384.081C396.207 383.931 395.511 383.857 394.442 383.857H389.631C386.473 383.857 384.894 382.688 384.894 380.351C384.894 379.63 385.093 378.971 385.491 378.374C385.888 377.778 386.522 377.305 387.393 376.957C385.379 375.938 384.372 374.222 384.372 371.81C384.372 369.523 385.08 367.869 386.498 366.85C387.915 365.805 390.016 365.283 392.801 365.283C393.373 365.283 393.994 365.333 394.666 365.432C395.362 365.507 395.884 365.582 396.232 365.656H402.871L402.759 368.826H399.962C400.732 369.548 401.118 370.555 401.118 371.847C401.118 373.663 400.546 375.117 399.402 376.211C398.258 377.28 396.568 377.815 394.33 377.815C393.932 377.815 393.547 377.802 393.174 377.778C392.826 377.728 392.465 377.678 392.092 377.628C391.346 377.728 390.712 377.902 390.19 378.151C389.693 378.399 389.444 378.735 389.444 379.158C389.444 379.729 389.954 380.015 390.973 380.015H395.971C397.761 380.015 399.141 380.426 400.111 381.246C401.08 382.042 401.565 383.21 401.565 384.752C401.565 386.492 400.782 387.785 399.216 388.631C397.649 389.476 395.387 389.899 392.428 389.899ZM392.838 374.98C394.33 374.98 395.362 374.732 395.934 374.234C396.53 373.712 396.829 372.842 396.829 371.624C396.829 370.405 396.53 369.523 395.934 368.976C395.362 368.429 394.33 368.155 392.838 368.155C391.421 368.155 390.401 368.429 389.78 368.976C389.158 369.498 388.847 370.38 388.847 371.624C388.847 372.767 389.133 373.613 389.705 374.16C390.302 374.707 391.346 374.98 392.838 374.98ZM404.964 383.335V365.656H409.626L409.85 367.484C410.646 366.987 411.628 366.539 412.796 366.141C413.99 365.718 415.159 365.432 416.302 365.283V369.088C415.631 369.187 414.897 369.336 414.102 369.535C413.306 369.734 412.548 369.958 411.827 370.206C411.106 370.455 410.497 370.716 409.999 370.99V383.335H404.964ZM427.361 383.708C424.303 383.708 421.879 382.949 420.088 381.433C418.298 379.891 417.403 377.566 417.403 374.458C417.403 371.649 418.149 369.423 419.641 367.782C421.158 366.116 423.408 365.283 426.392 365.283C429.127 365.283 431.215 366.004 432.657 367.446C434.124 368.864 434.858 370.729 434.858 373.041V376.248H422.065C422.339 377.666 422.985 378.635 424.005 379.158C425.049 379.68 426.516 379.941 428.406 379.941C429.35 379.941 430.308 379.854 431.277 379.68C432.272 379.506 433.117 379.282 433.813 379.008V382.589C432.993 382.962 432.036 383.235 430.942 383.409C429.848 383.608 428.654 383.708 427.361 383.708ZM422.065 373.153H430.457V372.183C430.457 371.164 430.158 370.368 429.562 369.796C428.965 369.199 427.958 368.901 426.541 368.901C424.875 368.901 423.706 369.237 423.035 369.908C422.388 370.579 422.065 371.661 422.065 373.153ZM448.769 383.708C447.526 383.708 446.444 383.546 445.524 383.223C444.604 382.875 443.759 382.365 442.988 381.694L442.727 383.335H438.363V358.197H443.398V366.626C444.119 366.178 444.928 365.843 445.823 365.619C446.718 365.395 447.65 365.283 448.62 365.283C451.156 365.283 453.158 366.004 454.625 367.446C456.116 368.864 456.862 371.164 456.862 374.346C456.862 377.529 456.129 379.891 454.662 381.433C453.22 382.949 451.255 383.708 448.769 383.708ZM447.352 380.015C448.968 380.015 450.099 379.543 450.746 378.598C451.417 377.653 451.753 376.236 451.753 374.346C451.753 372.382 451.392 371.002 450.671 370.206C449.975 369.386 448.856 368.976 447.314 368.976C446.544 368.976 445.81 369.088 445.114 369.311C444.443 369.535 443.871 369.858 443.398 370.281V378.412C443.896 378.934 444.48 379.332 445.151 379.605C445.848 379.879 446.581 380.015 447.352 380.015Z" fill="white"/>
<path d="M103.177 432.206C103.291 431.326 103.376 430.446 103.376 429.539C103.376 428.632 103.291 427.752 103.177 426.872H107.966C108.192 427.726 108.334 428.619 108.334 429.539C108.334 430.459 108.192 431.352 107.966 432.206M100.67 439.619C101.52 438.139 102.171 436.539 102.625 434.872H106.804C105.431 437.097 103.254 438.782 100.67 439.619ZM100.316 432.206H93.6857C93.544 431.326 93.459 430.446 93.459 429.539C93.459 428.632 93.544 427.739 93.6857 426.872H100.316C100.443 427.739 100.542 428.632 100.542 429.539C100.542 430.446 100.443 431.326 100.316 432.206ZM97.0007 440.152C95.8248 438.552 94.8757 436.779 94.2948 434.872H99.7065C99.1257 436.779 98.1765 438.552 97.0007 440.152ZM91.334 424.206H87.1973C88.5557 421.975 90.7316 420.288 93.3173 419.459C92.4673 420.939 91.8298 422.539 91.334 424.206ZM87.1973 434.872H91.334C91.8298 436.539 92.4673 438.139 93.3173 439.619C90.737 438.781 88.5642 437.096 87.1973 434.872ZM86.0357 432.206C85.809 431.352 85.6673 430.459 85.6673 429.539C85.6673 428.619 85.809 427.726 86.0357 426.872H90.824C90.7107 427.752 90.6257 428.632 90.6257 429.539C90.6257 430.446 90.7107 431.326 90.824 432.206M97.0007 418.912C98.1765 420.512 99.1257 422.299 99.7065 424.206H94.2948C94.8757 422.299 95.8248 420.512 97.0007 418.912ZM106.804 424.206H102.625C102.181 422.554 101.525 420.96 100.67 419.459C103.276 420.299 105.444 421.992 106.804 424.206ZM97.0007 416.206C89.1665 416.206 82.834 422.206 82.834 429.539C82.834 433.075 84.3265 436.467 86.9833 438.967C88.2988 440.205 89.8605 441.187 91.5793 441.857C93.2981 442.527 95.1403 442.872 97.0007 442.872C100.758 442.872 104.361 441.467 107.018 438.967C109.675 436.467 111.167 433.075 111.167 429.539C111.167 427.788 110.801 426.054 110.089 424.436C109.377 422.819 108.333 421.349 107.018 420.111C105.702 418.873 104.141 417.891 102.422 417.221C100.703 416.55 98.861 416.206 97.0007 416.206Z" fill="white"/>
<path d="M130.042 441.539L125.38 423.86H130.415L133.1 435.348L136.047 426.135V423.86H139.888L143.245 435.348L145.856 423.86H150.853L146.229 441.539H141.604L138.21 431.208L134.741 441.539H130.042ZM156.958 441.539L152.296 423.86H157.331L160.016 435.348L162.963 426.135V423.86H166.804L170.161 435.348L172.772 423.86H177.769L173.145 441.539H168.52L165.126 431.208L161.657 441.539H156.958ZM183.874 441.539L179.212 423.86H184.247L186.932 435.348L189.879 426.135V423.86H193.72L197.077 435.348L199.688 423.86H204.685L200.061 441.539H195.436L192.042 431.208L188.573 441.539H183.874ZM207.439 441.539V437.772H211.542V441.539H207.439ZM214.286 441.539V438.928L223.2 428.038H214.659V423.86H229.503V426.919L220.776 437.66H229.764V441.539H214.286ZM241.391 441.912C238.084 441.912 235.659 441.116 234.118 439.525C232.576 437.909 231.806 435.634 231.806 432.7C231.806 429.766 232.576 427.503 234.118 425.912C235.684 424.295 238.109 423.487 241.391 423.487C244.698 423.487 247.122 424.295 248.663 425.912C250.23 427.503 251.013 429.766 251.013 432.7C251.013 435.634 250.242 437.909 248.701 439.525C247.159 441.116 244.722 441.912 241.391 441.912ZM241.391 437.623C243.007 437.623 244.163 437.262 244.859 436.541C245.555 435.795 245.904 434.515 245.904 432.7C245.904 430.885 245.555 429.616 244.859 428.895C244.163 428.149 243.007 427.776 241.391 427.776C239.799 427.776 238.656 428.149 237.959 428.895C237.263 429.616 236.915 430.885 236.915 432.7C236.915 434.515 237.263 435.795 237.959 436.541C238.656 437.262 239.799 437.623 241.391 437.623ZM260.56 441.912C259.243 441.912 257.987 441.812 256.793 441.613C255.6 441.439 254.643 441.216 253.922 440.942V436.765C254.792 437.113 255.774 437.386 256.868 437.585C257.962 437.759 258.969 437.846 259.889 437.846C261.132 437.846 262.003 437.772 262.5 437.623C263.022 437.474 263.283 437.138 263.283 436.616C263.283 436.019 262.885 435.584 262.09 435.31C261.319 435.037 260.163 434.651 258.621 434.154C257.005 433.607 255.762 432.948 254.891 432.177C254.021 431.407 253.586 430.263 253.586 428.746C253.586 427.055 254.195 425.762 255.413 424.867C256.657 423.947 258.646 423.487 261.381 423.487C262.475 423.487 263.507 423.574 264.476 423.748C265.446 423.898 266.267 424.084 266.938 424.308V428.448C266.267 428.125 265.496 427.888 264.626 427.739C263.755 427.565 262.947 427.478 262.201 427.478C261.132 427.478 260.274 427.553 259.628 427.702C259.006 427.851 258.696 428.174 258.696 428.672C258.696 429.219 259.031 429.604 259.703 429.828C260.399 430.052 261.468 430.387 262.91 430.835C264.327 431.257 265.434 431.717 266.229 432.215C267.025 432.712 267.585 433.309 267.908 434.005C268.231 434.676 268.393 435.522 268.393 436.541C268.393 440.122 265.782 441.912 260.56 441.912ZM276.898 441.912C275.779 441.912 274.735 441.713 273.765 441.315C272.82 440.892 272.05 440.283 271.453 439.488C270.881 438.667 270.595 437.648 270.595 436.429C270.595 434.689 271.204 433.296 272.423 432.252C273.666 431.208 275.493 430.686 277.905 430.686H283.127V430.201C283.127 429.107 282.816 428.336 282.194 427.888C281.598 427.441 280.379 427.217 278.539 427.217C276.525 427.217 274.586 427.528 272.721 428.149V424.606C273.542 424.283 274.536 424.022 275.705 423.823C276.898 423.599 278.191 423.487 279.584 423.487C282.244 423.487 284.295 424.034 285.737 425.128C287.204 426.198 287.938 427.926 287.938 430.313V441.539H283.574L283.313 439.935C282.617 440.557 281.759 441.042 280.74 441.39C279.72 441.738 278.44 441.912 276.898 441.912ZM278.278 438.592C279.397 438.592 280.367 438.406 281.187 438.033C282.008 437.66 282.654 437.188 283.127 436.616V433.818H278.017C276.053 433.818 275.071 434.627 275.071 436.243C275.071 437.809 276.14 438.592 278.278 438.592ZM291.992 441.539V416.401H297.027V430.238L303.629 423.86H309.372L302.249 431.096L309.783 441.539H304.449L299.079 433.744L297.027 435.721V441.539H291.992ZM312.299 441.539V437.772H316.401V441.539H312.299ZM319.892 441.539V416.401H324.927V425.352C325.648 424.805 326.531 424.358 327.575 424.01C328.619 423.661 329.75 423.487 330.969 423.487C333.306 423.487 335.009 424.034 336.078 425.128C337.148 426.222 337.682 427.913 337.682 430.201V441.539H332.647V430.462C332.647 429.268 332.398 428.423 331.901 427.926C331.429 427.428 330.534 427.18 329.216 427.18C328.445 427.18 327.662 427.354 326.866 427.702C326.095 428.05 325.449 428.485 324.927 429.007V441.539H319.892ZM341.782 441.539V423.86H346.444L346.667 425.688C347.463 425.191 348.445 424.743 349.614 424.345C350.807 423.923 351.976 423.637 353.12 423.487V427.292C352.448 427.391 351.715 427.54 350.919 427.739C350.123 427.938 349.365 428.162 348.644 428.411C347.923 428.659 347.314 428.92 346.817 429.194V441.539H341.782Z" fill="white"/>
<g clip-path="url(#clip1_197_448)">
<path d="M794.946 232.276C794.296 232.087 793.619 232.005 792.943 232.034C791.862 232.065 790.791 232.25 789.763 232.584C788.858 232.797 788.007 233.191 787.26 233.743L762.511 260.536L737.092 231.769H691.701L728.891 272.63H762.305L795.269 233.736C795.453 233.58 795.575 233.364 795.615 233.127C795.615 232.931 795.548 232.741 795.427 232.587C795.306 232.433 795.136 232.323 794.946 232.276Z" fill="white"/>
<path d="M770.072 394.213C770.072 394.345 770.072 394.477 770.072 394.609C770.072 394.448 770.072 394.286 770.035 394.125L770.072 394.213Z" fill="white"/>
<path d="M514.593 439.616L525.848 425.196V422.613H507.371V426.502H518.774L507.437 440.834V443.483H525.959V439.616H514.593Z" fill="white"/>
<path d="M546.947 427.177C546.093 425.652 544.815 424.406 543.266 423.589C541.6 422.729 539.746 422.296 537.87 422.326C535.976 422.293 534.104 422.732 532.423 423.603C530.862 424.416 529.58 425.676 528.742 427.221C527.863 428.887 527.423 430.748 527.461 432.63V433.811C527.468 435.643 527.942 437.444 528.838 439.043C529.696 440.543 530.975 441.76 532.519 442.544C534.191 443.382 536.043 443.803 537.915 443.769C539.796 443.802 541.656 443.366 543.325 442.5C544.887 441.687 546.168 440.427 547.006 438.882C547.89 437.22 548.333 435.361 548.294 433.481V432.52C548.316 430.653 547.852 428.812 546.947 427.177ZM542.449 433.576C542.532 435.212 542.108 436.834 541.235 438.221C540.857 438.749 540.352 439.174 539.767 439.457C539.182 439.741 538.535 439.873 537.885 439.843C537.216 439.882 536.549 439.751 535.945 439.462C535.341 439.173 534.821 438.736 534.433 438.192C533.576 436.775 533.173 435.132 533.277 433.481V431.947C533.439 428.16 534.958 426.267 537.834 426.267C538.489 426.235 539.143 426.365 539.735 426.647C540.327 426.929 540.84 427.353 541.227 427.882C542.015 428.96 542.412 430.531 542.412 432.608L542.449 433.576Z" fill="white"/>
<path d="M562.656 417.013L560.256 418.899L557.849 416.984H553.116V417.109L558.475 421.196H562.016L567.345 417.138V416.984L562.656 417.013ZM565.387 432.534C564.085 431.918 562.727 431.426 561.331 431.067C560.125 430.779 558.965 430.325 557.886 429.716C557.61 429.576 557.375 429.367 557.204 429.11C557.032 428.853 556.93 428.556 556.907 428.249C556.91 427.941 556.994 427.64 557.15 427.374C557.306 427.109 557.53 426.889 557.798 426.737C558.528 426.304 559.371 426.097 560.219 426.142C561.08 426.097 561.931 426.343 562.634 426.84C562.928 427.077 563.162 427.38 563.317 427.724C563.472 428.068 563.543 428.444 563.525 428.821H569.208C569.223 427.597 568.827 426.403 568.081 425.431C567.262 424.392 566.168 423.602 564.923 423.148C563.455 422.592 561.894 422.318 560.323 422.341C558.712 422.317 557.109 422.565 555.582 423.075C554.335 423.468 553.214 424.179 552.328 425.137C551.573 425.977 551.16 427.069 551.172 428.197C551.172 430.516 552.713 432.341 555.795 433.672C556.996 434.169 558.225 434.595 559.476 434.949C560.567 435.221 561.614 435.648 562.582 436.218C562.867 436.404 563.098 436.659 563.254 436.96C563.41 437.261 563.486 437.597 563.473 437.935C563.486 438.235 563.419 438.532 563.279 438.798C563.14 439.063 562.932 439.287 562.678 439.447C562.009 439.833 561.242 440.019 560.47 439.983C559.342 440.077 558.214 439.799 557.26 439.19C556.916 438.881 556.648 438.498 556.477 438.069C556.306 437.64 556.236 437.177 556.274 436.717H550.488C550.46 438.037 550.875 439.328 551.665 440.386C552.584 441.533 553.809 442.398 555.199 442.881C556.871 443.509 558.646 443.818 560.433 443.791C563.164 443.791 565.321 443.27 566.889 442.228C567.622 441.775 568.223 441.136 568.63 440.377C569.037 439.619 569.237 438.766 569.208 437.906C569.208 435.626 567.934 433.836 565.387 432.534Z" fill="white"/>
<path d="M584.446 422.613H579.057L570.334 443.483H576.459L577.835 439.586H585.69L587.081 443.483H593.235L584.446 422.613ZM579.205 435.697L581.722 428.439L584.291 435.675L579.205 435.697Z" fill="white"/>
<path d="M614.915 422.613H607.826L602.673 429.166L600.685 431.815V422.613H594.973V443.483H600.707V437.979L603.056 435.712L608.12 443.483H614.915L606.876 431.844L614.915 422.613Z" fill="white"/>
<path d="M637.14 439.014C636.25 439.613 635.185 439.899 634.114 439.829C632.553 439.829 631.457 439.352 630.823 438.398C630.183 437.436 629.866 435.851 629.866 433.62V432.153C629.866 430.098 630.249 428.601 630.912 427.669C631.273 427.19 631.75 426.809 632.298 426.563C632.847 426.317 633.448 426.213 634.048 426.26C635.158 426.175 636.264 426.47 637.184 427.097C637.556 427.445 637.846 427.871 638.036 428.344C638.225 428.817 638.309 429.325 638.281 429.834H644C643.925 428.756 643.619 427.706 643.104 426.756C642.588 425.805 641.875 424.976 641.012 424.323C639.255 422.987 636.933 422.319 634.048 422.319C632.205 422.28 630.383 422.712 628.755 423.574C627.256 424.385 626.036 425.624 625.251 427.133C624.411 428.795 623.994 430.637 624.036 432.498V433.532C624.036 436.791 624.934 439.313 626.73 441.098C628.527 442.884 630.98 443.777 634.092 443.777C635.822 443.805 637.54 443.494 639.149 442.859C640.513 442.332 641.703 441.438 642.587 440.276C643.408 439.153 643.874 437.812 643.927 436.424H638.229C638.251 436.909 638.164 437.393 637.976 437.841C637.787 438.289 637.502 438.689 637.14 439.014Z" fill="white"/>
<path d="M665.473 427.177C664.62 425.651 663.341 424.404 661.792 423.589C660.109 422.754 658.254 422.319 656.374 422.319C654.494 422.319 652.639 422.754 650.956 423.589C649.394 424.402 648.113 425.662 647.275 427.207C646.391 428.871 645.947 430.732 645.987 432.615V433.796C645.996 435.629 646.472 437.43 647.371 439.029C648.229 440.529 649.508 441.746 651.051 442.529C652.721 443.369 654.571 443.789 656.44 443.755C658.324 443.788 660.187 443.352 661.858 442.485C663.419 441.672 664.701 440.412 665.539 438.867C666.425 437.206 666.871 435.347 666.834 433.466V432.505C666.846 430.642 666.377 428.808 665.473 427.177ZM660.967 433.562C661.067 435.201 660.65 436.83 659.775 438.222C659.397 438.75 658.893 439.175 658.308 439.458C657.722 439.742 657.075 439.874 656.425 439.843C655.758 439.883 655.091 439.752 654.488 439.463C653.885 439.174 653.366 438.737 652.98 438.192C652.124 436.775 651.72 435.132 651.824 433.481V431.947C651.986 428.161 653.505 426.267 656.381 426.267C657.036 426.235 657.688 426.365 658.279 426.647C658.87 426.929 659.382 427.353 659.767 427.882C660.562 428.96 660.953 430.531 660.953 432.608L660.967 433.562Z" fill="white"/>
<path d="M683.907 422.613V435.602L675.492 422.613H669.758V443.483H675.492V430.494L683.929 443.483H689.626V422.613H683.907Z" fill="white"/>
<path d="M707.405 432.534C706.102 431.919 704.744 431.427 703.348 431.067C702.142 430.779 700.983 430.325 699.903 429.716C699.627 429.576 699.392 429.367 699.221 429.11C699.049 428.853 698.947 428.556 698.924 428.249C698.927 427.941 699.011 427.64 699.167 427.374C699.324 427.109 699.547 426.889 699.815 426.737C700.545 426.304 701.388 426.097 702.237 426.142C703.098 426.097 703.948 426.343 704.651 426.84C704.946 427.077 705.18 427.38 705.334 427.724C705.489 428.068 705.56 428.444 705.542 428.821H711.284C711.299 427.597 710.903 426.403 710.158 425.431C709.338 424.392 708.245 423.602 707 423.148C705.531 422.592 703.97 422.318 702.399 422.341C700.788 422.317 699.185 422.565 697.658 423.075C696.412 423.468 695.29 424.179 694.404 425.137C693.649 425.977 693.237 427.069 693.249 428.197C693.249 430.516 694.79 432.341 697.872 433.672C699.072 434.169 700.301 434.595 701.552 434.949C702.644 435.221 703.69 435.648 704.659 436.218C704.943 436.404 705.174 436.659 705.33 436.96C705.486 437.261 705.562 437.597 705.55 437.935C705.559 438.238 705.488 438.537 705.343 438.803C705.198 439.068 704.985 439.291 704.725 439.447C704.045 439.84 703.265 440.026 702.48 439.983C701.352 440.077 700.224 439.799 699.27 439.19C698.925 438.882 698.656 438.499 698.485 438.07C698.313 437.64 698.245 437.177 698.284 436.717H692.534C692.507 438.037 692.921 439.328 693.712 440.386C694.631 441.533 695.856 442.398 697.246 442.881C698.918 443.509 700.693 443.818 702.48 443.791C705.211 443.791 707.368 443.27 708.936 442.228C709.675 441.778 710.281 441.141 710.694 440.382C711.106 439.623 711.31 438.769 711.284 437.906C711.284 435.626 709.991 433.836 707.405 432.534Z" fill="white"/>
<path d="M727.118 422.613V436.247C727.165 436.751 727.108 437.259 726.951 437.739C726.794 438.22 726.541 438.664 726.205 439.043C725.452 439.665 724.487 439.972 723.511 439.902C721.156 439.902 719.946 438.76 719.882 436.475V422.613H714.118V436.372C714.088 437.412 714.303 438.444 714.745 439.385C715.188 440.327 715.845 441.153 716.665 441.795C718.329 443.111 720.611 443.769 723.511 443.769C725.215 443.809 726.91 443.507 728.495 442.881C729.809 442.362 730.936 441.459 731.727 440.291C732.497 439.095 732.889 437.697 732.853 436.277V422.613H727.118Z" fill="white"/>
<path d="M742.201 439.616V422.613H736.467V443.483H752.184V439.616H742.201Z" fill="white"/>
<path d="M750.004 422.613V426.502H757.012V443.483H762.747V426.502H769.887V422.613H750.004Z" fill="white"/>
<path d="M772.699 422.613V443.483H778.419V422.613H772.699Z" fill="white"/>
<path d="M796.551 422.613V435.602L788.137 422.613H782.402V443.483H788.137V430.494L796.566 443.483H802.271V422.613H796.551Z" fill="white"/>
<path d="M815.646 432.329V435.778H819.636V439.021C818.654 439.675 817.48 439.983 816.302 439.895C814.557 439.895 813.283 439.366 812.474 438.324C811.664 437.282 811.252 435.712 811.252 433.628V432.365C811.165 430.751 811.581 429.148 812.444 427.779C812.824 427.258 813.327 426.839 813.909 426.56C814.491 426.281 815.134 426.15 815.779 426.179C816.76 426.112 817.736 426.37 818.554 426.913C819.286 427.55 819.742 428.444 819.828 429.408H825.386C825.319 428.367 825.028 427.352 824.533 426.432C824.037 425.513 823.349 424.711 822.515 424.08C820.871 422.892 818.571 422.297 815.617 422.297C813.757 422.259 811.918 422.685 810.265 423.537C808.75 424.336 807.511 425.571 806.71 427.082C805.852 428.744 805.424 430.593 805.466 432.461V434.266C805.593 437.246 806.589 439.572 808.454 441.245C810.319 442.918 812.807 443.755 815.919 443.755C817.81 443.773 819.694 443.508 821.506 442.969C822.943 442.598 824.272 441.894 825.386 440.915V432.329H815.646Z" fill="white"/>
<path d="M822.486 408.031C822.242 409.544 821.458 410.917 820.278 411.899C819.099 412.856 817.624 413.375 816.104 413.366H513.511C512.415 413.365 511.34 413.067 510.4 412.504C509.46 411.942 508.69 411.136 508.173 410.173C507.655 409.209 507.41 408.124 507.462 407.032C507.514 405.94 507.862 404.883 508.469 403.973L620.098 237.031C620.236 236.825 620.316 236.585 620.328 236.337C620.341 236.089 620.286 235.842 620.169 235.623C620.051 235.404 619.877 235.22 619.663 235.092C619.45 234.964 619.206 234.896 618.957 234.896H594.369C583.975 234.896 575.475 236.097 568.869 238.499C559.157 241.786 550.814 248.932 543.84 259.934C536.6 271.558 530.668 283.942 526.151 296.861L525.849 297.595C525.849 297.632 525.849 297.691 525.812 297.727L525.326 299.657C525.267 299.895 525.145 300.112 524.973 300.286C524.801 300.461 524.585 300.585 524.347 300.648C523.528 300.847 522.687 300.939 521.844 300.919C520.757 300.912 519.684 300.677 518.694 300.23C518.448 300.124 518.239 299.948 518.093 299.725C517.946 299.502 517.869 299.241 517.869 298.975V233.142C517.869 232.778 518.014 232.429 518.272 232.171C518.531 231.914 518.881 231.769 519.246 231.769H688.147C688.395 231.77 688.639 231.837 688.853 231.964C689.066 232.091 689.241 232.273 689.359 232.492C689.476 232.71 689.533 232.956 689.522 233.203C689.51 233.451 689.432 233.691 689.295 233.898L573.919 407.451C573.781 407.66 573.702 407.903 573.692 408.153C573.683 408.403 573.741 408.651 573.863 408.871C573.984 409.09 574.163 409.272 574.381 409.397C574.598 409.522 574.846 409.585 575.097 409.58H603.66C605.47 409.58 607.259 409.533 609.026 409.44H638.7L673.991 356.024L709.282 409.44H747.061C747.061 409.44 765.604 410.622 769.395 398.755C769.851 397.688 770.081 396.539 770.072 395.38C770.072 395.138 770.072 394.888 770.072 394.646C770.072 394.514 770.072 394.382 770.072 394.25L770.028 394.162C769.592 389.92 766.976 384.844 762.181 378.934C756.905 372.447 745.794 362.418 728.848 348.847C711.902 335.276 701.015 325.469 696.186 319.427C691.356 313.385 688.944 308.084 688.949 303.525C688.949 296.02 694.618 289.944 705.954 285.296C717.291 280.648 730.478 278.322 745.515 278.317C758.691 278.294 771.774 280.528 784.192 284.922C784.432 284.994 784.688 284.994 784.928 284.922C788.29 284.07 793.212 282.483 799.695 280.159C803.508 278.912 806.09 278.288 807.439 278.288C808.232 278.278 809.022 278.362 809.795 278.537C810.472 278.86 810.811 279.227 810.811 279.638V331.264C810.811 331.836 810.354 332.284 809.464 332.607C808.49 332.947 807.463 333.114 806.431 333.098C805.384 333.163 804.338 332.953 803.398 332.489C802.728 332.086 802.161 330.86 801.719 328.82C798.775 313.767 792.488 301.563 782.859 292.209C775.92 285.673 766.838 282.405 755.615 282.405C749.328 282.405 744.052 283.261 739.787 284.973C735.523 286.685 733.383 289.021 733.368 291.981C733.368 299.403 746.724 312.818 773.437 332.225C791.391 345.112 800.998 358.445 806.843 366.628C820.042 385.062 823.642 400.627 822.486 408.031Z" fill="white"/>
<path d="M770.072 394.213C770.072 394.345 770.072 394.477 770.072 394.609C770.072 394.448 770.072 394.286 770.035 394.125L770.072 394.213Z" fill="white"/>
</g>
</g>
<defs>
<filter id="filter0_d_197_448" x="579" y="90" width="1072.58" height="1070.51" filterUnits="userSpaceOnUse" color-interpolation-filters="sRGB">
<feFlood flood-opacity="0" result="BackgroundImageFix"/>
<feColorMatrix in="SourceAlpha" type="matrix" values="0 0 0 0 0 0 0 0 0 0 0 0 0 0 0 0 0 0 127 0" result="hardAlpha"/>
<feMorphology radius="5" operator="dilate" in="SourceAlpha" result="effect1_dropShadow_197_448"/>
<feOffset/>
<feGaussianBlur stdDeviation="5"/>
<feComposite in2="hardAlpha" operator="out"/>
<feColorMatrix type="matrix" values="0 0 0 0 0 0 0 0 0 0 0 0 0 0 0 0 0 0 0.35 0"/>
<feBlend mode="normal" in2="BackgroundImageFix" result="effect1_dropShadow_197_448"/>
<feBlend mode="normal" in="SourceGraphic" in2="effect1_dropShadow_197_448" result="shape"/>
</filter>
<filter id="filter1_d_197_448" x="499" y="-729" width="1072.58" height="1070.51" filterUnits="userSpaceOnUse" color-interpolation-filters="sRGB">
<feFlood flood-opacity="0" result="BackgroundImageFix"/>
<feColorMatrix in="SourceAlpha" type="matrix" values="0 0 0 0 0 0 0 0 0 0 0 0 0 0 0 0 0 0 127 0" result="hardAlpha"/>
<feMorphology radius="5" operator="dilate" in="SourceAlpha" result="effect1_dropShadow_197_448"/>
<feOffset/>
<feGaussianBlur stdDeviation="5"/>
<feComposite in2="hardAlpha" operator="out"/>
<feColorMatrix type="matrix" values="0 0 0 0 0 0 0 0 0 0 0 0 0 0 0 0 0 0 0.35 0"/>
<feBlend mode="normal" in2="BackgroundImageFix" result="effect1_dropShadow_197_448"/>
<feBlend mode="normal" in="SourceGraphic" in2="effect1_dropShadow_197_448" result="shape"/>
</filter>
<linearGradient id="paint0_linear_197_448" x1="1050" y1="156" x2="-30.5" y2="567.5" gradientUnits="userSpaceOnUse">
<stop stop-color="#4B4B4B"/>
<stop offset="1" stop-color="#252525"/>
</linearGradient>
<linearGradient id="paint1_linear_197_448" x1="951.648" y1="1203.81" x2="797.257" y2="641.973" gradientUnits="userSpaceOnUse">
<stop stop-color="#A0A0A0"/>
<stop offset="1" stop-color="#DBDBDB"/>
</linearGradient>
<linearGradient id="paint2_linear_197_448" x1="786.572" y1="-16.6221" x2="991.299" y2="564.672" gradientUnits="userSpaceOnUse">
<stop stop-color="#A0A0A0"/>
<stop offset="1" stop-color="#DBDBDB"/>
</linearGradient>
<clipPath id="clip0_197_448">
<rect width="1050" height="675" rx="40" fill="white"/>
</clipPath>
<clipPath id="clip1_197_448">
<rect width="318" height="212" fill="white" transform="translate(507.371 231.769)"/>
</clipPath>
</defs>
</svg>
