<svg width="1050" height="675" viewBox="0 0 1050 675" fill="none" xmlns="http://www.w3.org/2000/svg">
<g clip-path="url(#clip0_198_491)">
<rect width="1050" height="675" rx="40" fill="#292929"/>
<g filter="url(#filter0_d_198_491)">
<rect x="525" y="664.479" width="845" height="628" transform="rotate(-44.6152 525 664.479)" fill="url(#paint0_linear_198_491)"/>
</g>
<g filter="url(#filter1_d_198_491)">
<rect x="-441" y="908.479" width="845" height="628" transform="rotate(-44.6152 -441 908.479)" fill="url(#paint1_linear_198_491)"/>
</g>
<g filter="url(#filter2_d_198_491)">
<rect x="-493" y="61.4789" width="845" height="628" transform="rotate(-44.6152 -493 61.4789)" fill="url(#paint2_linear_198_491)"/>
</g>
<g filter="url(#filter3_d_198_491)">
<rect x="363" y="-76.5211" width="845" height="628" transform="rotate(-44.6152 363 -76.5211)" fill="url(#paint3_linear_198_491)"/>
</g>
<g clip-path="url(#clip1_198_491)">
<path d="M609.628 235.49C609.001 235.307 608.348 235.228 607.695 235.255C606.651 235.285 605.618 235.465 604.625 235.788C603.751 235.993 602.929 236.375 602.209 236.909L578.315 262.817L553.776 235H509.955L545.859 274.511H578.117L609.941 236.902C610.118 236.751 610.236 236.542 610.275 236.313C610.274 236.123 610.21 235.939 610.093 235.79C609.976 235.641 609.812 235.535 609.628 235.49Z" fill="white"/>
<path d="M585.614 392.08C585.614 392.208 585.614 392.335 585.614 392.463C585.614 392.307 585.614 392.151 585.578 391.995L585.614 392.08Z" fill="white"/>
<path d="M338.972 435.984L349.838 422.04V419.542H332V423.303H343.008L332.064 437.162V439.723H349.945V435.984H338.972Z" fill="white"/>
<path d="M370.207 423.956C369.382 422.481 368.148 421.276 366.653 420.486C365.045 419.655 363.255 419.235 361.444 419.265C359.615 419.233 357.808 419.658 356.185 420.5C354.678 421.286 353.44 422.504 352.631 423.998C351.783 425.609 351.358 427.408 351.395 429.228V430.371C351.402 432.142 351.859 433.883 352.724 435.43C353.552 436.881 354.787 438.057 356.277 438.815C357.892 439.626 359.68 440.033 361.486 440C363.303 440.032 365.098 439.61 366.71 438.772C368.217 437.986 369.455 436.768 370.263 435.274C371.117 433.667 371.545 431.869 371.507 430.051V429.122C371.528 427.316 371.08 425.536 370.207 423.956ZM365.864 430.143C365.944 431.725 365.535 433.294 364.692 434.635C364.327 435.146 363.84 435.556 363.275 435.83C362.71 436.104 362.085 436.233 361.458 436.204C360.813 436.241 360.168 436.114 359.585 435.835C359.002 435.556 358.5 435.133 358.125 434.607C357.298 433.237 356.909 431.648 357.009 430.051V428.568C357.166 424.907 358.632 423.076 361.408 423.076C362.041 423.044 362.672 423.171 363.244 423.443C363.816 423.716 364.311 424.126 364.685 424.637C365.445 425.68 365.829 427.199 365.829 429.207L365.864 430.143Z" fill="white"/>
<path d="M385.372 414.128L383.055 415.951L380.731 414.099H376.161V414.22L381.335 418.172H384.754L389.899 414.248V414.099L385.372 414.128ZM388.008 429.136C386.751 428.539 385.44 428.064 384.093 427.717C382.928 427.439 381.809 426.999 380.767 426.411C380.5 426.275 380.273 426.073 380.108 425.825C379.942 425.576 379.844 425.289 379.821 424.992C379.824 424.694 379.905 424.403 380.056 424.146C380.207 423.89 380.423 423.677 380.681 423.53C381.386 423.111 382.2 422.911 383.019 422.955C383.85 422.911 384.672 423.149 385.351 423.629C385.635 423.859 385.861 424.152 386.01 424.485C386.159 424.817 386.228 425.181 386.21 425.545H391.697C391.712 424.362 391.329 423.207 390.61 422.267C389.818 421.263 388.763 420.498 387.561 420.06C386.143 419.522 384.636 419.257 383.119 419.279C381.564 419.256 380.017 419.496 378.542 419.989C377.339 420.369 376.256 421.056 375.401 421.983C374.672 422.795 374.274 423.851 374.285 424.942C374.285 427.184 375.773 428.949 378.748 430.236C379.907 430.717 381.094 431.129 382.302 431.47C383.355 431.734 384.365 432.147 385.301 432.698C385.575 432.877 385.799 433.125 385.949 433.416C386.1 433.706 386.173 434.031 386.161 434.359C386.173 434.648 386.108 434.936 385.974 435.192C385.839 435.449 385.639 435.666 385.393 435.82C384.747 436.194 384.007 436.373 383.261 436.338C382.172 436.43 381.083 436.16 380.163 435.572C379.83 435.273 379.572 434.902 379.406 434.487C379.241 434.073 379.174 433.625 379.21 433.181H373.624C373.598 434.457 373.998 435.705 374.761 436.729C375.648 437.838 376.831 438.674 378.173 439.141C379.787 439.748 381.501 440.047 383.226 440.021C385.862 440.021 387.945 439.517 389.458 438.51C390.166 438.071 390.746 437.454 391.139 436.72C391.532 435.986 391.725 435.162 391.697 434.33C391.697 432.126 390.467 430.394 388.008 429.136Z" fill="white"/>
<path d="M406.409 419.542H401.207L392.785 439.723H398.698L400.027 435.955H407.61L408.953 439.723H414.894L406.409 419.542ZM401.349 432.194L403.779 425.176L406.26 432.173L401.349 432.194Z" fill="white"/>
<path d="M435.823 419.542H428.979L424.004 425.879L422.085 428.44V419.542H416.57V439.723H422.107V434.401L424.374 432.208L429.263 439.723H435.823L428.062 428.469L435.823 419.542Z" fill="white"/>
<path d="M457.278 435.402C456.419 435.981 455.391 436.258 454.357 436.189C452.85 436.189 451.792 435.728 451.18 434.806C450.562 433.876 450.256 432.343 450.256 430.186V428.767C450.256 426.78 450.626 425.332 451.266 424.431C451.615 423.968 452.075 423.6 452.604 423.362C453.133 423.124 453.714 423.023 454.293 423.069C455.365 422.987 456.433 423.272 457.321 423.878C457.68 424.215 457.96 424.627 458.143 425.084C458.326 425.541 458.407 426.033 458.38 426.524H463.902C463.829 425.482 463.534 424.467 463.036 423.548C462.538 422.629 461.85 421.827 461.016 421.195C459.32 419.904 457.079 419.258 454.293 419.258C452.514 419.22 450.755 419.638 449.183 420.471C447.737 421.255 446.558 422.454 445.8 423.913C444.989 425.52 444.587 427.301 444.628 429.1V430.101C444.628 433.252 445.495 435.69 447.229 437.417C448.963 439.144 451.332 440.007 454.336 440.007C456.006 440.035 457.665 439.733 459.218 439.12C460.534 438.61 461.683 437.745 462.537 436.622C463.33 435.537 463.78 434.239 463.83 432.897H458.33C458.351 433.366 458.267 433.834 458.085 434.267C457.903 434.7 457.628 435.088 457.278 435.402Z" fill="white"/>
<path d="M484.632 423.956C483.81 422.48 482.575 421.274 481.079 420.486C479.454 419.678 477.664 419.258 475.848 419.258C474.033 419.258 472.243 419.678 470.618 420.486C469.11 421.272 467.873 422.49 467.064 423.984C466.211 425.593 465.783 427.393 465.821 429.214V430.356C465.83 432.129 466.289 433.87 467.157 435.416C467.985 436.866 469.22 438.043 470.71 438.801C472.322 439.612 474.108 440.019 475.912 439.986C477.731 440.018 479.529 439.596 481.143 438.758C482.65 437.972 483.888 436.754 484.696 435.26C485.552 433.654 485.982 431.856 485.947 430.037V429.107C485.958 427.306 485.505 425.532 484.632 423.956ZM480.283 430.129C480.379 431.714 479.976 433.29 479.132 434.635C478.767 435.146 478.28 435.557 477.715 435.831C477.15 436.105 476.526 436.233 475.898 436.204C475.254 436.242 474.61 436.116 474.028 435.836C473.446 435.557 472.945 435.134 472.572 434.607C471.745 433.237 471.356 431.648 471.456 430.051V428.568C471.613 424.907 473.079 423.076 475.856 423.076C476.487 423.044 477.117 423.171 477.688 423.443C478.259 423.716 478.752 424.126 479.125 424.637C479.892 425.68 480.269 427.199 480.269 429.207L480.283 430.129Z" fill="white"/>
<path d="M502.429 419.542V432.102L494.306 419.542H488.77V439.723H494.306V427.163L502.45 439.723H507.951V419.542H502.429Z" fill="white"/>
<path d="M525.113 429.136C523.855 428.541 522.544 428.065 521.197 427.717C520.033 427.439 518.913 426.999 517.871 426.411C517.605 426.275 517.378 426.073 517.212 425.825C517.047 425.576 516.948 425.289 516.926 424.992C516.929 424.694 517.01 424.403 517.161 424.146C517.312 423.89 517.527 423.677 517.786 423.53C518.491 423.111 519.305 422.911 520.124 422.955C520.955 422.911 521.776 423.149 522.455 423.629C522.739 423.859 522.965 424.152 523.114 424.485C523.264 424.817 523.332 425.181 523.315 425.545H528.858C528.873 424.362 528.49 423.207 527.771 422.267C526.98 421.263 525.924 420.498 524.722 420.06C523.304 419.522 521.797 419.257 520.28 419.279C518.725 419.256 517.178 419.496 515.703 419.989C514.5 420.369 513.417 421.056 512.562 421.983C511.833 422.795 511.435 423.851 511.446 424.942C511.446 427.184 512.934 428.949 515.91 430.236C517.069 430.717 518.255 431.129 519.463 431.47C520.517 431.734 521.527 432.147 522.462 432.698C522.736 432.877 522.96 433.125 523.11 433.416C523.261 433.706 523.334 434.031 523.322 434.359C523.331 434.651 523.262 434.94 523.123 435.197C522.983 435.454 522.777 435.669 522.526 435.82C521.869 436.2 521.116 436.38 520.358 436.338C519.269 436.43 518.18 436.16 517.26 435.572C516.926 435.274 516.667 434.903 516.501 434.488C516.336 434.073 516.27 433.626 516.308 433.181H510.757C510.731 434.457 511.131 435.705 511.894 436.729C512.781 437.838 513.963 438.674 515.305 439.141C516.92 439.748 518.634 440.047 520.358 440.021C522.995 440.021 525.077 439.517 526.591 438.51C527.305 438.075 527.89 437.459 528.288 436.725C528.686 435.991 528.883 435.165 528.858 434.33C528.858 432.126 527.61 430.394 525.113 429.136Z" fill="white"/>
<path d="M544.145 419.542V432.726C544.19 433.213 544.135 433.704 543.984 434.169C543.832 434.634 543.587 435.063 543.264 435.43C542.536 436.031 541.604 436.328 540.663 436.26C538.389 436.26 537.221 435.156 537.159 432.946V419.542H531.594V432.847C531.566 433.852 531.773 434.85 532.2 435.761C532.627 436.672 533.262 437.47 534.053 438.091C535.66 439.364 537.863 440 540.663 440C542.308 440.039 543.944 439.747 545.474 439.141C546.743 438.639 547.831 437.766 548.594 436.636C549.337 435.48 549.716 434.128 549.681 432.755V419.542H544.145Z" fill="white"/>
<path d="M558.708 435.984V419.542H553.172V439.723H568.345V435.984H558.708Z" fill="white"/>
<path d="M566.24 419.542V423.303H573.006V439.723H578.542V423.303H585.436V419.542H566.24Z" fill="white"/>
<path d="M588.15 419.542V439.723H593.672V419.542H588.15Z" fill="white"/>
<path d="M611.177 419.542V432.102L603.054 419.542H597.518V439.723H603.054V427.163L611.191 439.723H616.699V419.542H611.177Z" fill="white"/>
<path d="M629.613 428.937V432.272H633.464V435.409C632.516 436.041 631.383 436.338 630.245 436.253C628.561 436.253 627.331 435.742 626.55 434.735C625.768 433.727 625.37 432.208 625.37 430.193V428.973C625.286 427.411 625.688 425.862 626.521 424.538C626.888 424.034 627.374 423.629 627.935 423.359C628.497 423.089 629.118 422.962 629.741 422.991C630.688 422.926 631.629 423.175 632.42 423.7C633.126 424.316 633.567 425.18 633.649 426.113H639.015C638.951 425.106 638.67 424.124 638.191 423.235C637.713 422.346 637.049 421.571 636.243 420.961C634.656 419.812 632.436 419.237 629.584 419.237C627.789 419.2 626.013 419.612 624.417 420.436C622.954 421.208 621.758 422.403 620.985 423.863C620.157 425.47 619.744 427.258 619.784 429.065V430.811C619.907 433.692 620.869 435.941 622.669 437.559C624.47 439.177 626.872 439.986 629.876 439.986C631.701 440.003 633.52 439.747 635.27 439.227C636.657 438.867 637.94 438.186 639.015 437.24V428.937H629.613Z" fill="white"/>
<path d="M636.214 405.442C635.978 406.904 635.221 408.233 634.082 409.182C632.944 410.108 631.52 410.609 630.052 410.601H337.927C336.868 410.599 335.83 410.311 334.923 409.767C334.015 409.223 333.272 408.444 332.773 407.512C332.274 406.581 332.036 405.531 332.087 404.476C332.137 403.42 332.473 402.398 333.059 401.518L440.826 240.088C440.96 239.888 441.037 239.656 441.049 239.416C441.061 239.177 441.008 238.938 440.895 238.726C440.782 238.514 440.613 238.337 440.407 238.213C440.201 238.089 439.965 238.023 439.725 238.023H415.988C405.953 238.023 397.747 239.184 391.37 241.507C381.994 244.686 373.939 251.595 367.207 262.235C360.217 273.475 354.49 285.45 350.129 297.943L349.838 298.652C349.838 298.688 349.838 298.745 349.802 298.78L349.333 300.646C349.276 300.876 349.158 301.086 348.992 301.254C348.826 301.423 348.617 301.544 348.388 301.604C347.597 301.797 346.785 301.885 345.972 301.867C344.922 301.859 343.886 301.632 342.93 301.2C342.693 301.097 342.491 300.928 342.35 300.712C342.209 300.496 342.133 300.244 342.134 299.986V236.327C342.134 235.975 342.274 235.638 342.523 235.389C342.772 235.14 343.11 235 343.463 235H506.522C506.762 235 506.997 235.065 507.203 235.188C507.409 235.311 507.578 235.487 507.691 235.698C507.805 235.909 507.859 236.147 507.849 236.387C507.838 236.626 507.762 236.858 507.63 237.058L396.245 404.881C396.112 405.083 396.036 405.318 396.026 405.56C396.017 405.802 396.073 406.042 396.191 406.253C396.308 406.465 396.481 406.641 396.691 406.762C396.901 406.883 397.14 406.944 397.382 406.939H424.957C426.705 406.939 428.432 406.894 430.138 406.804H458.785L492.855 355.152L526.925 406.804H563.397C563.397 406.804 581.299 407.947 584.959 396.472C585.399 395.441 585.622 394.329 585.613 393.208C585.613 392.974 585.613 392.733 585.613 392.499C585.613 392.371 585.613 392.243 585.613 392.115L585.571 392.03C585.149 387.929 582.624 383.02 577.995 377.306C572.902 371.033 562.175 361.335 545.815 348.212C529.455 335.088 518.944 325.606 514.282 319.763C509.62 313.921 507.291 308.795 507.296 304.386C507.296 297.129 512.768 291.253 523.713 286.759C534.657 282.265 547.388 280.015 561.905 280.011C574.626 279.989 587.256 282.149 599.244 286.397C599.476 286.468 599.723 286.468 599.955 286.397C603.2 285.574 607.952 284.039 614.211 281.792C617.892 280.586 620.384 279.982 621.687 279.982C622.452 279.973 623.216 280.054 623.962 280.224C624.615 280.536 624.942 280.891 624.942 281.288V331.209C624.942 331.763 624.502 332.196 623.642 332.508C622.701 332.837 621.71 332.998 620.714 332.983C619.703 333.045 618.694 332.842 617.786 332.394C617.139 332.004 616.592 330.819 616.165 328.846C613.323 314.29 607.253 302.489 597.958 293.444C591.258 287.123 582.491 283.963 571.655 283.963C565.586 283.963 560.493 284.791 556.376 286.447C552.259 288.103 550.193 290.362 550.179 293.224C550.179 300.4 563.073 313.372 588.861 332.139C606.195 344.6 615.469 357.493 621.112 365.406C633.854 383.231 637.329 398.282 636.214 405.442Z" fill="white"/>
<path d="M585.614 392.08C585.614 392.208 585.614 392.335 585.614 392.463C585.614 392.307 585.614 392.151 585.578 391.995L585.614 392.08Z" fill="white"/>
</g>
</g>
<defs>
<filter id="filter0_d_198_491" x="510" y="56.0001" width="1072.58" height="1070.51" filterUnits="userSpaceOnUse" color-interpolation-filters="sRGB">
<feFlood flood-opacity="0" result="BackgroundImageFix"/>
<feColorMatrix in="SourceAlpha" type="matrix" values="0 0 0 0 0 0 0 0 0 0 0 0 0 0 0 0 0 0 127 0" result="hardAlpha"/>
<feMorphology radius="5" operator="dilate" in="SourceAlpha" result="effect1_dropShadow_198_491"/>
<feOffset/>
<feGaussianBlur stdDeviation="5"/>
<feComposite in2="hardAlpha" operator="out"/>
<feColorMatrix type="matrix" values="0 0 0 0 0 0 0 0 0 0 0 0 0 0 0 0 0 0 0.35 0"/>
<feBlend mode="normal" in2="BackgroundImageFix" result="effect1_dropShadow_198_491"/>
<feBlend mode="normal" in="SourceGraphic" in2="effect1_dropShadow_198_491" result="shape"/>
</filter>
<filter id="filter1_d_198_491" x="-456" y="300" width="1072.58" height="1070.51" filterUnits="userSpaceOnUse" color-interpolation-filters="sRGB">
<feFlood flood-opacity="0" result="BackgroundImageFix"/>
<feColorMatrix in="SourceAlpha" type="matrix" values="0 0 0 0 0 0 0 0 0 0 0 0 0 0 0 0 0 0 127 0" result="hardAlpha"/>
<feMorphology radius="5" operator="dilate" in="SourceAlpha" result="effect1_dropShadow_198_491"/>
<feOffset/>
<feGaussianBlur stdDeviation="5"/>
<feComposite in2="hardAlpha" operator="out"/>
<feColorMatrix type="matrix" values="0 0 0 0 0 0 0 0 0 0 0 0 0 0 0 0 0 0 0.35 0"/>
<feBlend mode="normal" in2="BackgroundImageFix" result="effect1_dropShadow_198_491"/>
<feBlend mode="normal" in="SourceGraphic" in2="effect1_dropShadow_198_491" result="shape"/>
</filter>
<filter id="filter2_d_198_491" x="-508" y="-547" width="1072.58" height="1070.51" filterUnits="userSpaceOnUse" color-interpolation-filters="sRGB">
<feFlood flood-opacity="0" result="BackgroundImageFix"/>
<feColorMatrix in="SourceAlpha" type="matrix" values="0 0 0 0 0 0 0 0 0 0 0 0 0 0 0 0 0 0 127 0" result="hardAlpha"/>
<feMorphology radius="5" operator="dilate" in="SourceAlpha" result="effect1_dropShadow_198_491"/>
<feOffset/>
<feGaussianBlur stdDeviation="5"/>
<feComposite in2="hardAlpha" operator="out"/>
<feColorMatrix type="matrix" values="0 0 0 0 0 0 0 0 0 0 0 0 0 0 0 0 0 0 0.35 0"/>
<feBlend mode="normal" in2="BackgroundImageFix" result="effect1_dropShadow_198_491"/>
<feBlend mode="normal" in="SourceGraphic" in2="effect1_dropShadow_198_491" result="shape"/>
</filter>
<filter id="filter3_d_198_491" x="348" y="-685" width="1072.58" height="1070.51" filterUnits="userSpaceOnUse" color-interpolation-filters="sRGB">
<feFlood flood-opacity="0" result="BackgroundImageFix"/>
<feColorMatrix in="SourceAlpha" type="matrix" values="0 0 0 0 0 0 0 0 0 0 0 0 0 0 0 0 0 0 127 0" result="hardAlpha"/>
<feMorphology radius="5" operator="dilate" in="SourceAlpha" result="effect1_dropShadow_198_491"/>
<feOffset/>
<feGaussianBlur stdDeviation="5"/>
<feComposite in2="hardAlpha" operator="out"/>
<feColorMatrix type="matrix" values="0 0 0 0 0 0 0 0 0 0 0 0 0 0 0 0 0 0 0.35 0"/>
<feBlend mode="normal" in2="BackgroundImageFix" result="effect1_dropShadow_198_491"/>
<feBlend mode="normal" in="SourceGraphic" in2="effect1_dropShadow_198_491" result="shape"/>
</filter>
<linearGradient id="paint0_linear_198_491" x1="882.648" y1="1169.81" x2="728.257" y2="607.973" gradientUnits="userSpaceOnUse">
<stop stop-color="#A0A0A0"/>
<stop offset="1" stop-color="#DBDBDB"/>
</linearGradient>
<linearGradient id="paint1_linear_198_491" x1="42.2532" y1="1374.78" x2="310.851" y2="937.386" gradientUnits="userSpaceOnUse">
<stop stop-color="#A0A0A0"/>
<stop offset="1" stop-color="#DBDBDB"/>
</linearGradient>
<linearGradient id="paint2_linear_198_491" x1="-220.428" y1="165.378" x2="-15.7014" y2="746.672" gradientUnits="userSpaceOnUse">
<stop stop-color="#A0A0A0"/>
<stop offset="1" stop-color="#DBDBDB"/>
</linearGradient>
<linearGradient id="paint3_linear_198_491" x1="635.572" y1="27.3779" x2="840.299" y2="608.672" gradientUnits="userSpaceOnUse">
<stop stop-color="#A0A0A0"/>
<stop offset="1" stop-color="#DBDBDB"/>
</linearGradient>
<clipPath id="clip0_198_491">
<rect width="1050" height="675" rx="40" fill="white"/>
</clipPath>
<clipPath id="clip1_198_491">
<rect width="307" height="205" fill="white" transform="translate(332 235)"/>
</clipPath>
</defs>
</svg>
