<svg width="343" height="87" viewBox="0 0 343 87" fill="none" xmlns="http://www.w3.org/2000/svg">
<path d="M114.941 12.3838C114.681 12.3079 114.411 12.2751 114.141 12.2864C113.709 12.2989 113.281 12.3734 112.87 12.5078C112.508 12.5933 112.168 12.752 111.869 12.9741L101.977 23.7493L91.8176 12.1802H73.6753L88.5399 28.6129H101.895L115.071 12.9711C115.144 12.9082 115.193 12.8215 115.209 12.7262C115.209 12.6473 115.182 12.5709 115.134 12.5089C115.085 12.4469 115.017 12.4029 114.941 12.3838Z" fill="white"/>
<path d="M104.999 77.5099C104.999 77.5632 104.999 77.6162 104.999 77.6693C104.999 77.6044 104.999 77.5395 104.984 77.4746L104.999 77.5099Z" fill="white"/>
<path d="M125.948 83.0674C125.851 83.6757 125.537 84.228 125.065 84.6226C124.594 85.0079 124.005 85.2165 123.397 85.213H2.45377C2.0156 85.2123 1.5858 85.0924 1.21009 84.8662C0.834382 84.64 0.526802 84.316 0.320055 83.9286C0.113307 83.5411 0.0151224 83.1045 0.0359419 82.6655C0.0567615 82.2265 0.195807 81.8014 0.438291 81.4353L45.0553 14.2963C45.1107 14.2133 45.1425 14.1167 45.1476 14.017C45.1526 13.9173 45.1305 13.818 45.0837 13.7299C45.0368 13.6417 44.9672 13.568 44.8819 13.5165C44.7966 13.465 44.6989 13.4377 44.5993 13.4374H34.7721C30.6174 13.4374 27.2202 13.9205 24.5799 14.8865C20.6979 16.2087 17.3634 19.0822 14.576 23.5072C11.6822 28.1819 9.31114 33.1623 7.5057 38.3581L7.38506 38.6532C7.38506 38.668 7.38506 38.6917 7.37035 38.7065L7.17616 39.4827C7.15252 39.578 7.10373 39.6654 7.03489 39.7355C6.96603 39.8056 6.87967 39.8559 6.78483 39.881C6.45759 39.9612 6.12124 39.9979 5.78445 39.9902C5.34996 39.9871 4.92093 39.8926 4.52515 39.7129C4.42709 39.6701 4.34363 39.5996 4.28507 39.51C4.2265 39.4202 4.1954 39.3153 4.19561 39.2081V12.7321C4.19561 12.5857 4.25358 12.4453 4.35677 12.3418C4.45995 12.2383 4.5999 12.1802 4.74582 12.1802H72.254C72.3534 12.1802 72.4509 12.2072 72.536 12.2584C72.6213 12.3095 72.6912 12.3829 72.7383 12.4706C72.7854 12.5584 72.8078 12.6573 72.8035 12.7568C72.7989 12.8564 72.7678 12.9529 72.7129 13.036L26.5982 82.8343C26.543 82.9181 26.5117 83.0157 26.5077 83.1163C26.5037 83.2171 26.5272 83.3168 26.5756 83.405C26.6242 83.493 26.6957 83.5663 26.7828 83.6166C26.8697 83.6667 26.9687 83.6923 27.069 83.69H38.4852C39.209 83.69 39.924 83.6714 40.6301 83.634H52.4906L66.5959 62.1516L80.7013 83.634H95.8012C95.8012 83.634 103.213 84.1092 104.728 79.3369C104.91 78.9078 105.002 78.4456 104.999 77.9793C104.999 77.8819 104.999 77.7817 104.999 77.6842C104.999 77.6311 104.999 77.5779 104.999 77.5248L104.981 77.4893C104.807 75.7836 103.761 73.7422 101.845 71.3654C99.7361 68.7564 95.2952 64.7231 88.5219 59.2651C81.7488 53.8072 77.3971 49.8634 75.467 47.4334C73.5368 45.0035 72.5728 42.8717 72.5747 41.0379C72.5747 38.0197 74.8402 35.576 79.3715 33.7069C83.9026 31.8378 89.1733 30.9022 95.1833 30.9003C100.45 30.8911 105.679 31.7896 110.642 33.5564C110.738 33.5857 110.84 33.5857 110.936 33.5564C112.28 33.214 114.247 32.5756 116.839 31.641C118.363 31.1392 119.395 30.8885 119.934 30.8885C120.251 30.8847 120.567 30.9184 120.876 30.9887C121.146 31.1187 121.282 31.2662 121.282 31.4315V52.1939C121.282 52.4241 121.099 52.604 120.743 52.734C120.354 52.8709 119.943 52.9379 119.531 52.9317C119.112 52.9574 118.694 52.873 118.319 52.6867C118.051 52.5243 117.824 52.0316 117.648 51.211C116.471 45.157 113.958 40.249 110.11 36.4871C107.336 33.8585 103.706 32.5441 99.2202 32.5441C96.7074 32.5441 94.5988 32.8884 92.8942 33.5771C91.1897 34.2656 90.3344 35.2052 90.3285 36.3956C90.3285 39.3804 95.6668 44.7752 106.343 52.5805C113.52 57.763 117.36 63.1255 119.696 66.4161C124.971 73.8298 126.41 80.0894 125.948 83.0674Z" fill="white"/>
<path d="M104.999 77.5099C104.999 77.5632 104.999 77.6162 104.999 77.6693C104.999 77.6044 104.999 77.5395 104.984 77.4746L104.999 77.5099Z" fill="white"/>
<path d="M133.403 52.2001V46.2623L157.905 16.7432L159.036 20.0797H133.856V12.6151H167.185V18.5528L142.74 48.0719L141.608 44.7355H168.034V52.2001H133.403ZM192.766 52.8787C189.634 52.8787 186.73 52.3697 184.052 51.3518C181.41 50.3339 179.109 48.9014 177.148 47.054C175.224 45.2067 173.715 43.039 172.621 40.5508C171.564 38.0626 171.036 35.3482 171.036 32.4076C171.036 29.467 171.564 26.7526 172.621 24.2644C173.715 21.7762 175.242 19.6085 177.204 17.7611C179.166 15.9138 181.466 14.4812 184.107 13.4633C186.749 12.4454 189.615 11.9365 192.709 11.9365C195.839 11.9365 198.707 12.4454 201.31 13.4633C203.951 14.4812 206.234 15.9138 208.158 17.7611C210.118 19.6085 211.647 21.7762 212.74 24.2644C213.834 26.7148 214.382 29.4292 214.382 32.4076C214.382 35.3482 213.834 38.0814 212.74 40.6073C211.647 43.0955 210.118 45.2632 208.158 47.1106C206.234 48.9202 203.951 50.3339 201.31 51.3518C198.707 52.3697 195.858 52.8787 192.766 52.8787ZM192.709 45.0748C194.481 45.0748 196.104 44.7733 197.575 44.17C199.085 43.5667 200.404 42.6997 201.536 41.5687C202.668 40.4377 203.535 39.0993 204.139 37.5536C204.78 36.008 205.102 34.2925 205.102 32.4076C205.102 30.5226 204.78 28.8072 204.139 27.2615C203.535 25.7159 202.668 24.3775 201.536 23.2465C200.443 22.1155 199.14 21.2484 197.632 20.6452C196.123 20.0419 194.481 19.7404 192.709 19.7404C190.936 19.7404 189.294 20.0419 187.786 20.6452C186.315 21.2484 185.013 22.1155 183.881 23.2465C182.749 24.3775 181.863 25.7159 181.222 27.2615C180.618 28.8072 180.317 30.5226 180.317 32.4076C180.317 34.2549 180.618 35.9702 181.222 37.5536C181.863 39.0993 182.73 40.4377 183.825 41.5687C184.957 42.6997 186.277 43.5667 187.786 44.17C189.294 44.7733 190.936 45.0748 192.709 45.0748ZM234.286 52.8787C231.118 52.8787 228.079 52.464 225.175 51.6346C222.271 50.7675 219.931 49.6553 218.158 48.2981L221.272 41.399C222.969 42.6054 224.968 43.6045 227.27 44.3962C229.608 45.1501 231.966 45.5272 234.342 45.5272C236.153 45.5272 237.605 45.3575 238.7 45.0182C239.832 44.6412 240.661 44.1322 241.19 43.4914C241.718 42.8506 241.982 42.1154 241.982 41.2859C241.982 40.2303 241.566 39.401 240.737 38.7977C239.907 38.1569 238.813 37.6479 237.455 37.2709C236.097 36.8562 234.588 36.4792 232.928 36.1399C231.306 35.7628 229.664 35.3104 228.004 34.7827C226.382 34.2549 224.893 33.5763 223.535 32.7469C222.177 31.9174 221.063 30.8242 220.196 29.467C219.365 28.1098 218.951 26.3755 218.951 24.2644C218.951 22.0024 219.555 19.9478 220.761 18.1004C222.006 16.2154 223.855 14.7263 226.307 13.633C228.797 12.502 231.91 11.9365 235.645 11.9365C238.134 11.9365 240.586 12.2381 243.001 12.8413C245.414 13.4068 247.545 14.2739 249.394 15.4426L246.565 22.3982C244.716 21.3426 242.868 20.5698 241.019 20.0797C239.17 19.5519 237.36 19.288 235.587 19.288C233.815 19.288 232.363 19.4954 231.231 19.91C230.099 20.3247 229.288 20.8714 228.797 21.55C228.306 22.1908 228.062 22.9449 228.062 23.812C228.062 24.8299 228.476 25.6593 229.307 26.3002C230.136 26.9034 231.231 27.3934 232.589 27.7705C233.947 28.1475 235.436 28.5244 237.058 28.9015C238.718 29.2785 240.359 29.712 241.982 30.2021C243.641 30.6923 245.151 31.3519 246.509 32.1814C247.867 33.0108 248.961 34.1041 249.791 35.4613C250.658 36.8185 251.092 38.5338 251.092 40.6073C251.092 42.8316 250.47 44.8674 249.225 46.7147C247.98 48.5621 246.112 50.0512 243.622 51.1822C241.171 52.3132 238.058 52.8787 234.286 52.8787ZM231.06 9.39174L223.591 1.24854H230.042L237.851 7.97799H232.079L239.888 1.24854H246.338L238.869 9.39174H231.06ZM252.15 52.2001L269.805 12.6151H278.859L296.57 52.2001H286.95L272.464 17.2522H276.085L261.544 52.2001H252.15ZM260.978 43.7176L263.41 36.7619H283.781L286.271 43.7176H260.978ZM308.885 43.1521L308.374 32.5772L327.332 12.6151H337.517L320.428 30.9938L315.335 36.4226L308.885 43.1521ZM300.679 52.2001V12.6151H309.79V52.2001H300.679ZM327.784 52.2001L313.694 34.9523L319.692 28.4491L338.478 52.2001H327.784Z" fill="white"/>
<path d="M131.252 61.77H178.262" stroke="white"/>
<path d="M138.531 85.3993C137.602 85.3993 136.743 85.2485 135.954 84.9469C135.176 84.6337 134.497 84.1987 133.917 83.6419C133.348 83.0735 132.901 82.4123 132.576 81.6583C132.251 80.9044 132.088 80.0749 132.088 79.1701C132.088 78.2653 132.251 77.4359 132.576 76.6819C132.901 75.928 133.354 75.2725 133.934 74.7157C134.514 74.1473 135.193 73.7123 135.971 73.4107C136.76 73.0975 137.619 72.9409 138.548 72.9409C139.488 72.9409 140.353 73.1033 141.142 73.4281C141.943 73.7413 142.622 74.2111 143.179 74.8375L142.048 75.9337C141.583 75.4465 141.061 75.0869 140.481 74.8549C139.9 74.6113 139.279 74.4895 138.618 74.4895C137.933 74.4895 137.294 74.6056 136.702 74.8375C136.122 75.0695 135.617 75.3943 135.188 75.8119C134.758 76.2295 134.421 76.7284 134.178 77.3083C133.946 77.8768 133.829 78.4973 133.829 79.1701C133.829 79.843 133.946 80.4694 134.178 81.0493C134.421 81.6178 134.758 82.1107 135.188 82.5283C135.617 82.9459 136.122 83.2708 136.702 83.5027C137.294 83.7347 137.933 83.8507 138.618 83.8507C139.279 83.8507 139.9 83.7347 140.481 83.5027C141.061 83.2591 141.583 82.888 142.048 82.3891L143.179 83.4853C142.622 84.1117 141.943 84.5873 141.142 84.9121C140.353 85.237 139.482 85.3993 138.531 85.3993ZM161.009 85.3993C160.08 85.3993 159.215 85.2427 158.414 84.9295C157.625 84.6163 156.94 84.1813 156.36 83.6245C155.779 83.0561 155.327 82.3949 155.002 81.6409C154.677 80.887 154.514 80.0633 154.514 79.1701C154.514 78.277 154.677 77.4533 155.002 76.6993C155.327 75.9454 155.779 75.2899 156.36 74.7331C156.94 74.1647 157.625 73.7239 158.414 73.4107C159.203 73.0975 160.068 72.9409 161.009 72.9409C161.937 72.9409 162.79 73.0975 163.568 73.4107C164.357 73.7123 165.042 74.1473 165.622 74.7157C166.214 75.2725 166.667 75.928 166.981 76.6819C167.305 77.4359 167.468 78.2653 167.468 79.1701C167.468 80.0749 167.305 80.9044 166.981 81.6583C166.667 82.4123 166.214 83.0735 165.622 83.6419C165.042 84.1987 164.357 84.6337 163.568 84.9469C162.79 85.2485 161.937 85.3993 161.009 85.3993ZM161.009 83.8507C161.682 83.8507 162.303 83.7347 162.871 83.5027C163.452 83.2708 163.951 82.9459 164.369 82.5283C164.798 82.0991 165.129 81.6004 165.361 81.0319C165.605 80.4635 165.727 79.843 165.727 79.1701C165.727 78.4973 165.605 77.8768 165.361 77.3083C165.129 76.7399 164.798 76.2469 164.369 75.8293C163.951 75.4001 163.452 75.0695 162.871 74.8375C162.303 74.6056 161.682 74.4895 161.009 74.4895C160.324 74.4895 159.691 74.6056 159.111 74.8375C158.542 75.0695 158.043 75.4001 157.613 75.8293C157.184 76.2469 156.847 76.7399 156.603 77.3083C156.371 77.8768 156.255 78.4973 156.255 79.1701C156.255 79.843 156.371 80.4635 156.603 81.0319C156.847 81.6004 157.184 82.0991 157.613 82.5283C158.043 82.9459 158.542 83.2708 159.111 83.5027C159.691 83.7347 160.324 83.8507 161.009 83.8507ZM180.228 85.2601V73.0801H181.656L189.717 83.0851H188.969V73.0801H190.71V85.2601H189.282L181.221 75.2551H181.969V85.2601H180.228ZM208.008 85.3993C207.08 85.3993 206.192 85.2601 205.344 84.9817C204.496 84.6917 203.829 84.3205 203.342 83.8681L203.986 82.5109C204.451 82.9169 205.043 83.2534 205.762 83.5201C206.481 83.7869 207.23 83.9203 208.008 83.9203C208.716 83.9203 209.291 83.8391 209.732 83.6767C210.172 83.5144 210.498 83.2939 210.707 83.0155C210.916 82.7255 211.02 82.4008 211.02 82.0411C211.02 81.6235 210.881 81.2872 210.602 81.0319C210.336 80.7767 209.981 80.5738 209.54 80.4229C209.11 80.2606 208.635 80.1214 208.112 80.0053C207.59 79.8893 207.062 79.756 206.528 79.6051C206.006 79.4428 205.523 79.2397 205.083 78.9961C204.653 78.7525 204.305 78.4277 204.038 78.0217C203.772 77.6041 203.638 77.0705 203.638 76.4209C203.638 75.7945 203.8 75.2203 204.125 74.6983C204.461 74.1647 204.973 73.7413 205.657 73.4281C206.354 73.1033 207.237 72.9409 208.304 72.9409C209.012 72.9409 209.714 73.0337 210.411 73.2193C211.107 73.405 211.711 73.6717 212.221 74.0197L211.647 75.4117C211.124 75.0637 210.573 74.8144 209.993 74.6635C209.413 74.5012 208.849 74.4199 208.304 74.4199C207.62 74.4199 207.055 74.5069 206.615 74.6809C206.174 74.8549 205.849 75.0869 205.64 75.3769C205.443 75.667 205.344 75.9917 205.344 76.3513C205.344 76.7806 205.478 77.1227 205.744 77.3779C206.023 77.6332 206.376 77.8361 206.806 77.9869C207.247 78.1378 207.729 78.277 208.252 78.4045C208.774 78.5206 209.296 78.6539 209.819 78.8047C210.353 78.9556 210.834 79.1527 211.264 79.3963C211.704 79.6399 212.059 79.9648 212.326 80.3707C212.592 80.7767 212.726 81.2987 212.726 81.9367C212.726 82.5515 212.557 83.1257 212.221 83.6593C211.885 84.1813 211.363 84.6047 210.654 84.9295C209.958 85.2427 209.075 85.3993 208.008 85.3993ZM230.418 85.3993C228.816 85.3993 227.555 84.9412 226.64 84.0247C225.722 83.1083 225.264 81.7685 225.264 80.0053V73.0801H227.005V79.9357C227.005 81.2929 227.301 82.2847 227.893 82.9111C228.496 83.5375 229.344 83.8507 230.435 83.8507C231.537 83.8507 232.385 83.5375 232.977 82.9111C233.58 82.2847 233.883 81.2929 233.883 79.9357V73.0801H235.571V80.0053C235.571 81.7685 235.112 83.1083 234.196 84.0247C233.291 84.9412 232.03 85.3993 230.418 85.3993ZM249.239 85.2601V73.0801H250.98V83.7463H257.579V85.2601H249.239ZM270.956 85.2601V74.5939H266.778V73.0801H276.859V74.5939H272.68V85.2601H270.956ZM288.853 85.2601V73.0801H290.594V85.2601H288.853ZM304.342 85.2601V73.0801H305.77L313.831 83.0851H313.083V73.0801H314.824V85.2601H313.396L305.335 75.2551H306.083V85.2601H304.342ZM334.072 85.3993C333.131 85.3993 332.268 85.2485 331.477 84.9469C330.689 84.6337 330.004 84.1987 329.423 83.6419C328.843 83.0735 328.39 82.4123 328.065 81.6583C327.741 80.9044 327.577 80.0749 327.577 79.1701C327.577 78.2653 327.741 77.4359 328.065 76.6819C328.39 75.928 328.843 75.2725 329.423 74.7157C330.015 74.1473 330.706 73.7123 331.495 73.4107C332.285 73.0975 333.156 72.9409 334.107 72.9409C335.071 72.9409 335.952 73.0975 336.753 73.4107C337.554 73.7239 338.233 74.1937 338.79 74.8201L337.711 75.8989C337.213 75.4117 336.666 75.058 336.074 74.8375C335.494 74.6056 334.862 74.4895 334.176 74.4895C333.48 74.4895 332.83 74.6056 332.226 74.8375C331.634 75.0695 331.119 75.3943 330.676 75.8119C330.248 76.2295 329.91 76.7284 329.667 77.3083C329.435 77.8768 329.318 78.4973 329.318 79.1701C329.318 79.8313 329.435 80.452 329.667 81.0319C329.91 81.6004 330.248 82.0991 330.676 82.5283C331.119 82.9459 331.634 83.2708 332.226 83.5027C332.818 83.7347 333.462 83.8507 334.159 83.8507C334.81 83.8507 335.43 83.7521 336.022 83.5549C336.626 83.3461 337.183 83.0039 337.693 82.5283L338.686 83.8507C338.083 84.3611 337.375 84.7498 336.561 85.0165C335.761 85.2718 334.932 85.3993 334.072 85.3993ZM337.014 83.6245V79.1005H338.686V83.8507L337.014 83.6245Z" fill="white"/>
</svg>
