<svg width="156" height="107" viewBox="0 0 156 107" fill="none" xmlns="http://www.w3.org/2000/svg">
<path d="M141.074 0.253176C140.756 0.158853 140.424 0.117955 140.092 0.132092C139.562 0.1476 139.037 0.240273 138.532 0.407283C138.088 0.513639 137.67 0.710909 137.304 0.987019L125.163 14.3833L112.693 0H90.4263L108.67 20.4302H125.062L141.233 0.98335C141.323 0.905151 141.383 0.797377 141.403 0.678805C141.403 0.580821 141.37 0.485758 141.311 0.408665C141.251 0.331572 141.168 0.276855 141.074 0.253176Z" fill="white"/>
<path d="M128.872 81.2218C128.872 81.2878 128.872 81.3539 128.872 81.4199C128.872 81.3392 128.872 81.2585 128.854 81.1777L128.872 81.2218Z" fill="white"/>
<path d="M3.54266 103.923L9.06431 96.7132V95.4216H0V97.3663H5.59387L0.0325015 104.532V105.857H9.11848V103.923H3.54266Z" fill="white"/>
<path d="M19.4142 97.7038C18.9954 96.9412 18.3683 96.318 17.6086 95.9096C16.7912 95.4799 15.8816 95.2631 14.9615 95.2785C14.0323 95.262 13.1137 95.4814 12.2891 95.9169C11.5232 96.3235 10.8944 96.9534 10.4835 97.7258C10.0524 98.5588 9.83624 99.4891 9.85515 100.43V101.021C9.85855 101.937 10.0909 102.837 10.5305 103.637C10.9513 104.387 11.5789 104.995 12.3361 105.387C13.1565 105.806 14.065 106.017 14.9832 106C15.9062 106.016 16.8186 105.798 17.6374 105.365C18.4034 104.959 19.0322 104.329 19.4431 103.556C19.8766 102.725 20.0941 101.796 20.0751 100.856V100.375C20.0857 99.4415 19.858 98.5212 19.4142 97.7038ZM17.2077 100.903C17.2483 101.721 17.0403 102.532 16.6118 103.226C16.4264 103.49 16.1789 103.702 15.8919 103.844C15.6048 103.986 15.2875 104.052 14.9687 104.037C14.6407 104.056 14.3132 103.991 14.0169 103.846C13.7207 103.702 13.4654 103.483 13.275 103.211C12.8548 102.503 12.657 101.681 12.7081 100.856V100.089C12.7875 98.1955 13.5326 97.2488 14.9434 97.2488C15.265 97.2327 15.5855 97.298 15.8761 97.4389C16.1667 97.5798 16.4183 97.7919 16.6082 98.056C16.9946 98.5954 17.1896 99.3806 17.1896 100.419L17.2077 100.903Z" fill="white"/>
<path d="M27.1207 92.6221L25.9434 93.5651L24.7625 92.6074H22.4405V92.6698L25.0695 94.7136H26.8065L29.4211 92.6845V92.6074L27.1207 92.6221ZM28.4605 100.382C27.8217 100.074 27.1554 99.8284 26.4707 99.6486C25.879 99.5051 25.3101 99.2778 24.7806 98.9735C24.6453 98.9034 24.53 98.799 24.4459 98.6705C24.3617 98.542 24.3116 98.3936 24.3003 98.2397C24.3018 98.0859 24.343 97.9352 24.4196 97.8026C24.4963 97.67 24.6058 97.5601 24.7373 97.4838C25.0955 97.2672 25.5091 97.1638 25.9254 97.1866C26.3476 97.164 26.7649 97.2868 27.1099 97.5352C27.2542 97.6538 27.369 97.8053 27.4449 97.9774C27.5209 98.1496 27.5558 98.3375 27.5468 98.5259H30.3347C30.3423 97.9139 30.1477 97.3171 29.7822 96.8307C29.3802 96.3115 28.8437 95.9163 28.233 95.6896C27.5125 95.4114 26.7466 95.2745 25.9759 95.286C25.1859 95.274 24.3995 95.3981 23.6503 95.6529C23.0389 95.8494 22.4886 96.2048 22.0541 96.6839C21.6835 97.104 21.4812 97.6499 21.4871 98.214C21.4871 99.3735 22.2431 100.286 23.755 100.951C24.344 101.2 24.9469 101.413 25.5606 101.59C26.096 101.726 26.6093 101.939 27.0846 102.224C27.224 102.317 27.3375 102.445 27.4141 102.595C27.4906 102.746 27.5277 102.914 27.5216 103.083C27.5278 103.233 27.495 103.381 27.4265 103.514C27.358 103.647 27.2563 103.759 27.1315 103.839C26.8031 104.032 26.4271 104.125 26.0482 104.107C25.4947 104.154 24.9414 104.015 24.4736 103.71C24.3048 103.556 24.1733 103.364 24.0894 103.15C24.0055 102.935 23.9714 102.704 23.9897 102.474H21.1513C21.1378 103.134 21.3411 103.779 21.7291 104.309C22.1796 104.882 22.7805 105.315 23.4625 105.556C24.2827 105.87 25.1537 106.024 26.0301 106.011C27.3699 106.011 28.428 105.751 29.1972 105.23C29.557 105.003 29.8517 104.683 30.0514 104.304C30.2511 103.925 30.3489 103.498 30.3347 103.068C30.3347 101.928 29.71 101.033 28.4605 100.382Z" fill="white"/>
<path d="M37.81 95.4216H35.1666L30.8872 105.857H33.8918L34.5671 103.909H38.4203L39.1029 105.857H42.1219L37.81 95.4216ZM35.2388 101.964L36.4739 98.335L37.7342 101.953L35.2388 101.964Z" fill="white"/>
<path d="M52.7571 95.4216H49.2794L46.7515 98.6982L45.7765 100.023V95.4216H42.9741V105.857H45.7873V103.105L46.9393 101.971L49.4239 105.857H52.7571L48.8136 100.038L52.7571 95.4216Z" fill="white"/>
<path d="M63.6595 103.622C63.223 103.922 62.7008 104.065 62.1753 104.03C61.4097 104.03 60.8716 103.791 60.561 103.314C60.2469 102.833 60.0916 102.041 60.0916 100.925V100.192C60.0916 99.1643 60.2794 98.4157 60.6044 97.9497C60.7817 97.7102 61.0156 97.52 61.2846 97.3968C61.5535 97.2737 61.8487 97.2215 62.1428 97.2453C62.6875 97.2028 63.2301 97.3504 63.6812 97.6635C63.8636 97.838 64.0063 98.051 64.0993 98.2874C64.1922 98.5238 64.2332 98.778 64.2193 99.0322H67.0252C66.9882 98.4932 66.8383 97.9685 66.5854 97.4933C66.3325 97.018 65.9826 96.6032 65.559 96.2766C64.6971 95.6088 63.5584 95.2749 62.1428 95.2749C61.2388 95.2555 60.3449 95.4715 59.5463 95.9023C58.8111 96.3077 58.2124 96.9275 57.8273 97.6819C57.4152 98.5128 57.2106 99.4339 57.2314 100.364V100.881C57.2314 102.511 57.672 103.772 58.5532 104.664C59.4343 105.557 60.6381 106.004 62.1644 106.004C63.0131 106.018 63.8561 105.862 64.6454 105.545C65.3142 105.281 65.898 104.834 66.3319 104.253C66.7346 103.692 66.9634 103.021 66.9891 102.327H64.194C64.2046 102.57 64.1622 102.812 64.0697 103.036C63.9773 103.26 63.8372 103.46 63.6595 103.622Z" fill="white"/>
<path d="M77.5595 97.704C77.1414 96.9408 76.5141 96.3175 75.7539 95.9097C74.9281 95.4922 74.0183 95.2749 73.096 95.2749C72.1736 95.2749 71.2638 95.4922 70.4381 95.9097C69.6721 96.3163 69.0433 96.9462 68.6324 97.7186C68.1986 98.5507 67.9811 99.4815 68.0005 100.423V101.014C68.005 101.93 68.2386 102.83 68.6794 103.63C69.1002 104.38 69.7279 104.988 70.485 105.38C71.304 105.8 72.2114 106.01 73.1285 105.993C74.0527 106.01 74.9664 105.791 75.7864 105.358C76.5523 104.951 77.1811 104.321 77.592 103.549C78.0266 102.718 78.2454 101.789 78.2276 100.848V100.368C78.2331 99.4364 78.0031 98.5191 77.5595 97.704ZM75.3494 100.896C75.3981 101.716 75.1935 102.53 74.7644 103.226C74.5792 103.49 74.3317 103.703 74.0446 103.845C73.7575 103.986 73.44 104.052 73.1212 104.037C72.7937 104.057 72.4665 103.992 72.1708 103.847C71.875 103.703 71.6205 103.484 71.4312 103.211C71.0109 102.503 70.8132 101.681 70.8642 100.856V100.089C70.9436 98.1956 71.6888 97.249 73.0996 97.249C73.4207 97.2328 73.7407 97.2981 74.0307 97.439C74.3207 97.58 74.5716 97.7921 74.7608 98.0562C75.1508 98.5956 75.3422 99.3808 75.3422 100.419L75.3494 100.896Z" fill="white"/>
<path d="M86.602 95.4216V101.916L82.4743 95.4216H79.6611V105.857H82.4743V99.3624L86.6128 105.857H89.408V95.4216H86.602Z" fill="white"/>
<path d="M98.1292 100.382C97.4901 100.075 96.8239 99.829 96.1393 99.6486C95.5477 99.5051 94.9788 99.2778 94.4493 98.9735C94.3139 98.9034 94.1987 98.799 94.1145 98.6705C94.0304 98.542 93.9803 98.3936 93.969 98.2397C93.9705 98.0859 94.0116 97.9352 94.0883 97.8026C94.165 97.67 94.2745 97.5601 94.4059 97.4838C94.7642 97.2672 95.1777 97.1638 95.594 97.1866C96.0162 97.164 96.4336 97.2868 96.7785 97.5352C96.9229 97.6538 97.0377 97.8053 97.1136 97.9774C97.1895 98.1496 97.2244 98.3375 97.2155 98.5259H100.032C100.04 97.9139 99.8453 97.3171 99.4798 96.8307C99.0777 96.3115 98.5413 95.9163 97.9305 95.6896C97.21 95.4114 96.4442 95.2745 95.6735 95.2859C94.8834 95.274 94.0971 95.398 93.3478 95.6529C92.7364 95.8494 92.1862 96.2048 91.7516 96.6839C91.3811 97.104 91.1788 97.6499 91.1847 98.214C91.1847 99.3735 91.9406 100.286 93.4525 100.951C94.0416 101.2 94.6445 101.413 95.2582 101.59C95.7936 101.726 96.3068 101.939 96.7821 102.224C96.9216 102.317 97.0351 102.445 97.1116 102.595C97.1882 102.746 97.2252 102.914 97.2191 103.083C97.2238 103.234 97.1889 103.384 97.1178 103.517C97.0467 103.65 96.9421 103.761 96.8146 103.839C96.481 104.035 96.0982 104.128 95.7132 104.107C95.1598 104.154 94.6064 104.015 94.1387 103.71C93.9692 103.557 93.8373 103.365 93.7533 103.15C93.6693 102.936 93.6356 102.704 93.6548 102.474H90.8344C90.8209 103.134 91.0242 103.779 91.4122 104.309C91.8627 104.882 92.4636 105.315 93.1456 105.556C93.9658 105.87 94.8368 106.024 95.7132 106.011C97.053 106.011 98.1111 105.751 98.8803 105.23C99.2428 105.005 99.5404 104.686 99.7427 104.307C99.945 103.927 100.045 103.5 100.032 103.068C100.032 101.928 99.3979 101.033 98.1292 100.382Z" fill="white"/>
<path d="M107.8 95.4216V102.239C107.823 102.491 107.795 102.745 107.718 102.985C107.641 103.225 107.517 103.447 107.352 103.637C106.983 103.948 106.509 104.101 106.031 104.066C104.875 104.066 104.282 103.495 104.25 102.353V95.4216H101.423V102.301C101.408 102.821 101.513 103.337 101.73 103.808C101.947 104.279 102.27 104.692 102.672 105.013C103.488 105.671 104.608 106 106.031 106C106.867 106.02 107.698 105.869 108.476 105.556C109.12 105.296 109.673 104.845 110.061 104.261C110.439 103.663 110.631 102.964 110.613 102.254V95.4216H107.8Z" fill="white"/>
<path d="M115.2 103.923V95.4216H112.386V105.857H120.097V103.923H115.2Z" fill="white"/>
<path d="M119.028 95.4216V97.3663H122.466V105.857H125.279V97.3663H128.782V95.4216H119.028Z" fill="white"/>
<path d="M130.161 95.4216V105.857H132.967V95.4216H130.161Z" fill="white"/>
<path d="M141.862 95.4216V101.916L137.734 95.4216H134.921V105.857H137.734V99.3624L141.869 105.857H144.668V95.4216H141.862Z" fill="white"/>
<path d="M151.23 100.28V102.004H153.187V103.626C152.705 103.953 152.129 104.107 151.551 104.063C150.695 104.063 150.07 103.798 149.673 103.277C149.276 102.756 149.074 101.971 149.074 100.929V100.298C149.031 99.4906 149.235 98.6895 149.659 98.0048C149.845 97.7443 150.092 97.5348 150.377 97.3952C150.663 97.2556 150.978 97.1902 151.295 97.2049C151.776 97.1714 152.254 97.3004 152.656 97.5718C153.015 97.8901 153.239 98.3371 153.281 98.8193H156.007C155.975 98.2986 155.832 97.7911 155.589 97.3314C155.346 96.8717 155.008 96.4707 154.599 96.1555C153.792 95.5611 152.664 95.2639 151.215 95.2639C150.303 95.2449 149.4 95.458 148.59 95.884C147.846 96.2833 147.239 96.9008 146.846 97.6562C146.425 98.4871 146.215 99.4116 146.235 100.346V101.248C146.298 102.738 146.787 103.901 147.701 104.738C148.616 105.574 149.837 105.993 151.363 105.993C152.291 106.002 153.215 105.869 154.104 105.6C154.809 105.414 155.461 105.062 156.007 104.573V100.28H151.23Z" fill="white"/>
<path d="M154.584 88.1309C154.465 88.8872 154.08 89.574 153.501 90.0646C152.923 90.5434 152.199 90.8029 151.453 90.7984H3.01169C2.47389 90.7976 1.94638 90.6486 1.48524 90.3674C1.02411 90.0863 0.646597 89.6834 0.392842 89.2016C0.139087 88.7198 0.0185798 88.1772 0.044133 87.6314C0.0696862 87.0855 0.240345 86.557 0.537963 86.1018L55.2994 2.63083C55.3674 2.52764 55.4065 2.40764 55.4126 2.28363C55.4187 2.15962 55.3916 2.03625 55.3342 1.92666C55.2767 1.81707 55.1911 1.72538 55.0864 1.66135C54.9817 1.59732 54.8618 1.56336 54.7396 1.56309H42.678C37.5788 1.56309 33.409 2.16361 30.1685 3.36467C25.404 5.00848 21.3112 8.58108 17.8902 14.0825C14.3384 19.8942 11.4282 26.0861 9.21225 32.546L9.06419 32.9129C9.06419 32.9312 9.06419 32.9606 9.04613 32.9789L8.80779 33.9439C8.77877 34.0626 8.71888 34.1713 8.63439 34.2584C8.54989 34.3456 8.44389 34.408 8.32749 34.4393C7.92583 34.539 7.51302 34.5846 7.09966 34.575C6.56637 34.5712 6.0398 34.4537 5.55403 34.2301C5.43367 34.1771 5.33124 34.0894 5.25936 33.9779C5.18748 33.8664 5.14932 33.736 5.14956 33.6027V0.686144C5.14956 0.504167 5.22071 0.329644 5.34736 0.200967C5.474 0.0722899 5.64577 0 5.82487 0L88.682 0C88.804 5.09453e-05 88.9236 0.0336473 89.0283 0.097223C89.133 0.160799 89.2187 0.251981 89.2765 0.361091C89.3343 0.470202 89.3619 0.593169 89.3564 0.716939C89.3509 0.84071 89.3126 0.960665 89.2454 1.06407L32.6458 87.841C32.578 87.9455 32.5395 88.0668 32.5346 88.1919C32.5297 88.317 32.5586 88.441 32.6181 88.5506C32.6776 88.6602 32.7655 88.7512 32.8722 88.8136C32.979 88.8761 33.1005 88.9078 33.2236 88.9051H47.2354C48.1238 88.9051 49.0013 88.8819 49.868 88.8354H64.4251L81.7376 62.1272L99.05 88.8354H117.583C117.583 88.8354 126.68 89.4262 128.54 83.493C128.763 82.9595 128.876 82.385 128.872 81.8052C128.872 81.6841 128.872 81.5593 128.872 81.4383C128.872 81.3722 128.872 81.3062 128.872 81.2401L128.85 81.1961C128.636 79.0753 127.353 76.5374 125.001 73.5825C122.413 70.3389 116.962 65.3243 108.649 58.5387C100.336 51.7531 94.9946 46.8498 92.6256 43.8288C90.2566 40.8078 89.0733 38.1574 89.0757 35.8776C89.0757 32.1252 91.8564 29.0871 97.4177 26.7633C102.979 24.4394 109.448 23.2763 116.825 23.2738C123.289 23.2625 129.707 24.3795 135.798 26.5761C135.916 26.6125 136.042 26.6125 136.16 26.5761C137.809 26.1505 140.223 25.3567 143.404 24.1948C145.274 23.5711 146.541 23.2592 147.203 23.2592C147.591 23.2545 147.979 23.2964 148.358 23.3839C148.691 23.5454 148.857 23.7288 148.857 23.9343V49.7472C148.857 50.0334 148.633 50.2573 148.196 50.4187C147.718 50.589 147.214 50.6722 146.708 50.6645C146.194 50.6966 145.682 50.5916 145.22 50.36C144.892 50.1582 144.614 49.5454 144.397 48.5254C142.952 40.9986 139.868 34.8967 135.145 30.2197C131.741 26.9516 127.285 25.3176 121.779 25.3176C118.695 25.3176 116.107 25.7457 114.015 26.6018C111.923 27.458 110.873 28.626 110.866 30.1059C110.866 33.8167 117.418 40.5241 130.522 50.2279C139.33 56.6711 144.043 63.338 146.91 67.4292C153.385 76.6463 155.151 84.4287 154.584 88.1309Z" fill="white"/>
<path d="M128.872 81.2218C128.872 81.2878 128.872 81.3539 128.872 81.4199C128.872 81.3392 128.872 81.2585 128.854 81.1777L128.872 81.2218Z" fill="white"/>
</svg>
