<svg width="38" height="38" viewBox="0 0 38 38" fill="none" xmlns="http://www.w3.org/2000/svg">
<g clip-path="url(#clip0_43_133)">
<path d="M18.6471 25.7858C25.3929 25.7858 30.8614 20.3172 30.8614 13.5715C30.8614 6.8257 25.3929 1.35718 18.6471 1.35718C11.9014 1.35718 6.43286 6.8257 6.43286 13.5715C6.43286 20.3172 11.9014 25.7858 18.6471 25.7858Z" stroke="white" stroke-width="2.92308" stroke-linecap="round" stroke-linejoin="round"/>
<path d="M16.2857 25.5686L13.8971 35.6115C13.8499 35.8023 13.7625 35.9809 13.6408 36.1354C13.5191 36.2898 13.3659 36.4166 13.1914 36.5072C13.0073 36.5871 12.8086 36.6284 12.6079 36.6284C12.4071 36.6284 12.2085 36.5871 12.0243 36.5072L3.01285 32.5715C2.82383 32.4821 2.65751 32.3511 2.52637 32.1882C2.39523 32.0254 2.30268 31.835 2.25566 31.6313C2.20865 31.4275 2.2084 31.2158 2.25492 31.012C2.30144 30.8081 2.39353 30.6175 2.52428 30.4543L9.5 21.7143M21.7143 25.4329L24.1571 35.6115C24.2057 35.8056 24.2966 35.9865 24.4233 36.1414C24.55 36.2962 24.7094 36.4211 24.89 36.5072C25.0691 36.5881 25.2634 36.63 25.46 36.63C25.6566 36.63 25.8509 36.5881 26.03 36.5072L34.9871 32.5715C35.179 32.4832 35.3476 32.3513 35.4796 32.1864C35.6115 32.0215 35.7031 31.828 35.7471 31.6215C35.7986 31.4194 35.8008 31.2079 35.7536 31.0048C35.7063 30.8017 35.6111 30.6129 35.4757 30.4543L28.2014 21.1986" stroke="white" stroke-width="2.92308" stroke-linecap="round" stroke-linejoin="round"/>
<path d="M17.0445 20.1176L11.1765 14.5287L13.1321 12.6667L17.0445 16.3908L24.8667 8.94116L26.8236 10.8046L17.0445 20.1176Z" fill="white"/>
</g>
<defs>
<clipPath id="clip0_43_133">
<rect width="38" height="38" fill="white"/>
</clipPath>
</defs>
</svg>
