<svg width="25" height="26" viewBox="0 0 25 26" fill="none" xmlns="http://www.w3.org/2000/svg">
<path d="M15.6251 10.9167L11.4584 15.0834L9.37507 13M13.798 4.10314L15.0699 5.18648C15.3907 5.45939 15.7886 5.62398 16.2074 5.65835L17.874 5.79168C18.3477 5.82951 18.7925 6.03478 19.1287 6.37072C19.4648 6.70667 19.6703 7.15132 19.7084 7.62502L19.8407 9.29168C19.8751 9.71148 20.0407 10.1104 20.3136 10.4302L21.3969 11.7011C21.7057 12.063 21.8753 12.5232 21.8753 12.999C21.8753 13.4747 21.7057 13.9349 21.3969 14.2969L20.3136 15.5688C20.0407 15.8896 19.8751 16.2875 19.8417 16.7073L19.7084 18.374C19.6706 18.8477 19.4653 19.2925 19.1294 19.6286C18.7934 19.9647 18.3488 20.1703 17.8751 20.2084L16.2084 20.3417C15.7888 20.3749 15.3904 20.5397 15.0699 20.8125L13.798 21.8959C13.4359 22.2044 12.9758 22.3739 12.5001 22.3739C12.0244 22.3739 11.5642 22.2044 11.2022 21.8959L9.93132 20.8125C9.61053 20.5395 9.21171 20.3747 8.79174 20.3417L7.12507 20.2084C6.65121 20.1702 6.20642 19.9645 5.87046 19.6282C5.5345 19.2919 5.32933 18.8468 5.29174 18.3729L5.1584 16.7073C5.12467 16.2879 4.95955 15.8899 4.68653 15.5698L3.6032 14.2969C3.295 13.9351 3.12573 13.4753 3.12573 13C3.12573 12.5247 3.295 12.065 3.6032 11.7031L4.68653 10.4302C4.96049 10.1094 5.12403 9.71148 5.15736 9.29168L5.2907 7.62606C5.32903 7.152 5.53488 6.70706 5.87138 6.37095C6.20788 6.03483 6.65305 5.82948 7.12715 5.79168L8.79174 5.65939C9.21146 5.62587 9.6099 5.46074 9.93028 5.18752L11.2022 4.10418C11.5642 3.79563 12.0244 3.62616 12.5001 3.62616C12.9758 3.62616 13.4359 3.79459 13.798 4.10314Z" stroke="#636363" stroke-width="2" stroke-linecap="round" stroke-linejoin="round"/>
</svg>
