<svg width="46" height="42" viewBox="0 0 46 42" fill="none" xmlns="http://www.w3.org/2000/svg">
<path d="M13.4667 0H32.3667C39.5667 0 45.4167 5.46 45.4167 12.18V29.82C45.4167 33.0503 44.0418 36.1484 41.5945 38.4326C39.1471 40.7168 35.8278 42 32.3667 42H13.4667C6.26675 42 0.416748 36.54 0.416748 29.82V12.18C0.416748 8.94966 1.79166 5.85163 4.239 3.56744C6.68635 1.28325 10.0057 0 13.4667 0ZM13.0167 4.2C10.8685 4.2 8.80823 4.9965 7.28918 6.41427C5.77014 7.83205 4.91675 9.75496 4.91675 11.76V30.24C4.91675 34.419 8.53925 37.8 13.0167 37.8H32.8167C34.965 37.8 37.0253 37.0035 38.5443 35.5857C40.0634 34.168 40.9167 32.245 40.9167 30.24V11.76C40.9167 7.581 37.2942 4.2 32.8167 4.2H13.0167ZM34.7292 7.35C35.4752 7.35 36.1905 7.62656 36.718 8.11884C37.2454 8.61113 37.5417 9.27881 37.5417 9.975C37.5417 10.6712 37.2454 11.3389 36.718 11.8312C36.1905 12.3234 35.4752 12.6 34.7292 12.6C33.9833 12.6 33.268 12.3234 32.7405 11.8312C32.2131 11.3389 31.9167 10.6712 31.9167 9.975C31.9167 9.27881 32.2131 8.61113 32.7405 8.11884C33.268 7.62656 33.9833 7.35 34.7292 7.35ZM22.9167 10.5C25.9004 10.5 28.7619 11.6062 30.8717 13.5754C32.9815 15.5445 34.1667 18.2152 34.1667 21C34.1667 23.7848 32.9815 26.4555 30.8717 28.4246C28.7619 30.3938 25.9004 31.5 22.9167 31.5C19.9331 31.5 17.0716 30.3938 14.9618 28.4246C12.852 26.4555 11.6667 23.7848 11.6667 21C11.6667 18.2152 12.852 15.5445 14.9618 13.5754C17.0716 11.6062 19.9331 10.5 22.9167 10.5ZM22.9167 14.7C21.1265 14.7 19.4096 15.3637 18.1438 16.5452C16.8779 17.7267 16.1667 19.3291 16.1667 21C16.1667 22.6709 16.8779 24.2733 18.1438 25.4548C19.4096 26.6363 21.1265 27.3 22.9167 27.3C24.707 27.3 26.4238 26.6363 27.6897 25.4548C28.9556 24.2733 29.6667 22.6709 29.6667 21C29.6667 19.3291 28.9556 17.7267 27.6897 16.5452C26.4238 15.3637 24.707 14.7 22.9167 14.7Z" fill="white"/>
</svg>
