<svg width="22" height="22" viewBox="0 0 22 22" fill="none" xmlns="http://www.w3.org/2000/svg">
<path d="M11 1.375C9.09636 1.375 7.23546 1.9395 5.65264 2.99711C4.06982 4.05471 2.83616 5.55793 2.10766 7.31667C1.37917 9.07541 1.18856 11.0107 1.55995 12.8777C1.93133 14.7448 2.84802 16.4598 4.1941 17.8059C5.54018 19.152 7.25519 20.0687 9.12226 20.4401C10.9893 20.8114 12.9246 20.6208 14.6833 19.8923C16.4421 19.1638 17.9453 17.9302 19.0029 16.3474C20.0605 14.7645 20.625 12.9036 20.625 11C20.625 8.44729 19.6109 5.99914 17.8059 4.1941C16.0009 2.38906 13.5527 1.375 11 1.375ZM16.1198 11.6153L7.86982 15.7403C7.76498 15.7927 7.64848 15.8174 7.5314 15.8121C7.41432 15.8068 7.30054 15.7717 7.20086 15.71C7.10118 15.6484 7.01892 15.5623 6.96189 15.4599C6.90486 15.3575 6.87495 15.2422 6.87501 15.125V6.875C6.87507 6.75786 6.90506 6.64267 6.96214 6.54037C7.01922 6.43808 7.10149 6.35206 7.20115 6.29049C7.30081 6.22892 7.41455 6.19383 7.53157 6.18856C7.6486 6.18329 7.76503 6.20801 7.86982 6.26038L16.1198 10.3854C16.2339 10.4425 16.3298 10.5303 16.3968 10.6388C16.4638 10.7474 16.4993 10.8724 16.4993 11C16.4993 11.1276 16.4638 11.2526 16.3968 11.3612C16.3298 11.4697 16.2339 11.5575 16.1198 11.6146" fill="#1E45A8"/>
</svg>
