<svg width="50" height="40" viewBox="0 0 50 40" fill="none" xmlns="http://www.w3.org/2000/svg">
<path d="M44.3334 34.4998H39.5V13.354L25 22.4165L10.5 13.354V34.4998H5.66671V5.49984H8.56671L25 15.7707L41.4334 5.49984H44.3334M44.3334 0.666504H5.66671C2.98421 0.666504 0.833374 2.81734 0.833374 5.49984V34.4998C0.833374 35.7817 1.3426 37.0111 2.24902 37.9175C3.15545 38.8239 4.38483 39.3332 5.66671 39.3332H44.3334C45.6152 39.3332 46.8446 38.8239 47.7511 37.9175C48.6575 37.0111 49.1667 35.7817 49.1667 34.4998V5.49984C49.1667 4.21796 48.6575 2.98858 47.7511 2.08215C46.8446 1.17573 45.6152 0.666504 44.3334 0.666504Z" fill="#3E3E3E"/>
</svg>
