<svg width="49" height="40" viewBox="0 0 49 40" fill="none" xmlns="http://www.w3.org/2000/svg">
<path d="M43.75 34.4998H38.9167V13.354L24.4167 22.4165L9.91667 13.354V34.4998H5.08333V5.49984H7.98333L24.4167 15.7707L40.85 5.49984H43.75M43.75 0.666504H5.08333C2.40083 0.666504 0.25 2.81734 0.25 5.49984V34.4998C0.25 35.7817 0.759224 37.0111 1.66565 37.9175C2.57208 38.8239 3.80145 39.3332 5.08333 39.3332H43.75C45.0319 39.3332 46.2613 38.8239 47.1677 37.9175C48.0741 37.0111 48.5833 35.7817 48.5833 34.4998V5.49984C48.5833 4.21796 48.0741 2.98858 47.1677 2.08215C46.2613 1.17573 45.0319 0.666504 43.75 0.666504Z" fill="white"/>
</svg>
