<svg width="45" height="42" viewBox="0 0 45 42" fill="none" xmlns="http://www.w3.org/2000/svg">
<path d="M13.05 0H31.95C39.15 0 45 5.46 45 12.18V29.82C45 33.0503 43.6251 36.1484 41.1777 38.4326C38.7304 40.7168 35.4111 42 31.95 42H13.05C5.85 42 0 36.54 0 29.82V12.18C0 8.94966 1.37491 5.85163 3.82226 3.56744C6.26961 1.28325 9.58893 0 13.05 0ZM12.6 4.2C10.4517 4.2 8.39148 4.9965 6.87244 6.41427C5.35339 7.83205 4.5 9.75496 4.5 11.76V30.24C4.5 34.419 8.1225 37.8 12.6 37.8H32.4C34.5483 37.8 36.6085 37.0035 38.1276 35.5857C39.6466 34.168 40.5 32.245 40.5 30.24V11.76C40.5 7.581 36.8775 4.2 32.4 4.2H12.6ZM34.3125 7.35C35.0584 7.35 35.7738 7.62656 36.3012 8.11884C36.8287 8.61113 37.125 9.27881 37.125 9.975C37.125 10.6712 36.8287 11.3389 36.3012 11.8312C35.7738 12.3234 35.0584 12.6 34.3125 12.6C33.5666 12.6 32.8512 12.3234 32.3238 11.8312C31.7963 11.3389 31.5 10.6712 31.5 9.975C31.5 9.27881 31.7963 8.61113 32.3238 8.11884C32.8512 7.62656 33.5666 7.35 34.3125 7.35ZM22.5 10.5C25.4837 10.5 28.3452 11.6062 30.455 13.5754C32.5647 15.5445 33.75 18.2152 33.75 21C33.75 23.7848 32.5647 26.4555 30.455 28.4246C28.3452 30.3938 25.4837 31.5 22.5 31.5C19.5163 31.5 16.6548 30.3938 14.545 28.4246C12.4353 26.4555 11.25 23.7848 11.25 21C11.25 18.2152 12.4353 15.5445 14.545 13.5754C16.6548 11.6062 19.5163 10.5 22.5 10.5ZM22.5 14.7C20.7098 14.7 18.9929 15.3637 17.727 16.5452C16.4612 17.7267 15.75 19.3291 15.75 21C15.75 22.6709 16.4612 24.2733 17.727 25.4548C18.9929 26.6363 20.7098 27.3 22.5 27.3C24.2902 27.3 26.0071 26.6363 27.273 25.4548C28.5388 24.2733 29.25 22.6709 29.25 21C29.25 19.3291 28.5388 17.7267 27.273 16.5452C26.0071 15.3637 24.2902 14.7 22.5 14.7Z" fill="#3E3E3E"/>
</svg>
